<mxfile host="app.diagrams.net" modified="2020-11-26T14:20:43.049Z" agent="5.0 (Windows NT 10.0; Win64; x64) AppleWebKit/537.36 (KHTML, like Gecko) Chrome/87.0.4280.66 Safari/537.36" etag="Bjsn1BFkVP1sAMQFLnC7" version="13.10.3" type="github" pages="3">
  <diagram id="FgyFkXJcIKG0fMY5ibd2" name="Project Explorer">
    <mxGraphModel dx="2500" dy="2065" grid="1" gridSize="10" guides="1" tooltips="1" connect="1" arrows="1" fold="1" page="1" pageScale="1" pageWidth="827" pageHeight="1169" math="0" shadow="0">
      <root>
        <mxCell id="S2QvFrK3PuCgfU6eUb4U-0" />
        <mxCell id="S2QvFrK3PuCgfU6eUb4U-1" parent="S2QvFrK3PuCgfU6eUb4U-0" />
        <mxCell id="wJfrvK_9jVTi93enFSVC-5" value="" style="group" vertex="1" connectable="0" parent="S2QvFrK3PuCgfU6eUb4U-1">
          <mxGeometry x="100" y="820" width="970" height="280" as="geometry" />
        </mxCell>
        <mxCell id="EKYV59rnYQYyG5BfVOuk-7" value="" style="rounded=0;whiteSpace=wrap;html=1;shadow=1;strokeColor=none;" vertex="1" parent="wJfrvK_9jVTi93enFSVC-5">
          <mxGeometry width="970" height="280" as="geometry" />
        </mxCell>
        <mxCell id="wJfrvK_9jVTi93enFSVC-0" value="Error List" style="rounded=0;whiteSpace=wrap;html=1;shadow=1;strokeColor=#6c8ebf;align=left;fontSize=14;fillColor=#6666FF;" vertex="1" parent="wJfrvK_9jVTi93enFSVC-5">
          <mxGeometry width="970" height="40" as="geometry" />
        </mxCell>
        <mxCell id="wJfrvK_9jVTi93enFSVC-1" value="" style="rounded=0;whiteSpace=wrap;html=1;shadow=1;strokeColor=none;align=left;fontSize=14;" vertex="1" parent="wJfrvK_9jVTi93enFSVC-5">
          <mxGeometry y="40" width="970" height="40" as="geometry" />
        </mxCell>
        <mxCell id="wJfrvK_9jVTi93enFSVC-6" value="" style="html=1;shadow=0;dashed=0;shape=mxgraph.bootstrap.rrect;rSize=5;strokeColor=#D6D8DB;strokeWidth=1;fillColor=#E2E3E5;fontColor=#383D41;whiteSpace=wrap;align=left;verticalAlign=middle;spacingLeft=10;" vertex="1" parent="wJfrvK_9jVTi93enFSVC-5">
          <mxGeometry y="83" width="970" height="40" as="geometry" />
        </mxCell>
        <mxCell id="wJfrvK_9jVTi93enFSVC-7" value="Date" style="html=1;shadow=0;dashed=0;shape=mxgraph.bootstrap.rrect;rSize=5;strokeColor=#0085FC;strokeWidth=1;fillColor=none;fontColor=#0085FC;whiteSpace=wrap;align=center;verticalAlign=middle;spacingLeft=0;fontStyle=0;fontSize=16;spacing=5;" vertex="1" parent="wJfrvK_9jVTi93enFSVC-5">
          <mxGeometry x="10" y="83" width="80" height="40" as="geometry" />
        </mxCell>
        <mxCell id="wJfrvK_9jVTi93enFSVC-8" value="Description" style="html=1;shadow=0;dashed=0;shape=mxgraph.bootstrap.rrect;rSize=5;strokeColor=#0085FC;strokeWidth=1;fillColor=none;fontColor=#0085FC;whiteSpace=wrap;align=center;verticalAlign=middle;spacingLeft=0;fontStyle=0;fontSize=16;spacing=5;" vertex="1" parent="wJfrvK_9jVTi93enFSVC-5">
          <mxGeometry x="90" y="83" width="140" height="40" as="geometry" />
        </mxCell>
        <mxCell id="wJfrvK_9jVTi93enFSVC-2" value="Error (1)" style="html=1;shadow=0;dashed=0;shape=mxgraph.bootstrap.rrect;rSize=5;strokeColor=none;strokeWidth=1;fillColor=#DB2843;fontColor=#FFFFFF;whiteSpace=wrap;align=center;verticalAlign=middle;spacingLeft=0;fontStyle=0;fontSize=16;spacing=5;" vertex="1" parent="wJfrvK_9jVTi93enFSVC-5">
          <mxGeometry y="40" width="110" height="40" as="geometry" />
        </mxCell>
        <mxCell id="wJfrvK_9jVTi93enFSVC-3" value="Warning(1)" style="html=1;shadow=0;dashed=0;shape=mxgraph.bootstrap.rrect;rSize=5;strokeColor=none;strokeWidth=1;fillColor=#FFBC26;fontColor=#FFFFFF;whiteSpace=wrap;align=center;verticalAlign=middle;spacingLeft=0;fontStyle=0;fontSize=16;spacing=5;" vertex="1" parent="wJfrvK_9jVTi93enFSVC-5">
          <mxGeometry x="110" y="40" width="110" height="40" as="geometry" />
        </mxCell>
        <mxCell id="wJfrvK_9jVTi93enFSVC-4" value="Info (0)" style="html=1;shadow=0;dashed=0;shape=mxgraph.bootstrap.rrect;rSize=5;strokeColor=none;strokeWidth=1;fillColor=#1CA5B8;fontColor=#FFFFFF;whiteSpace=wrap;align=center;verticalAlign=middle;spacingLeft=0;fontStyle=0;fontSize=16;spacing=5;" vertex="1" parent="wJfrvK_9jVTi93enFSVC-5">
          <mxGeometry x="220" y="40" width="60" height="40" as="geometry" />
        </mxCell>
        <mxCell id="F_466ytePDx-1a6FgnFO-0" value="" style="fillColor=#F8F9FA;strokeColor=none;align=left;fontSize=14;fontColor=#323232;" parent="S2QvFrK3PuCgfU6eUb4U-1" vertex="1">
          <mxGeometry x="100" y="150" width="280" height="660" as="geometry" />
        </mxCell>
        <mxCell id="F_466ytePDx-1a6FgnFO-1" value="Project Explorer" style="html=1;shadow=0;dashed=0;perimeter=none;whiteSpace=wrap;resizeWidth=1;align=left;fontSize=18;strokeColor=none;" parent="F_466ytePDx-1a6FgnFO-0" vertex="1">
          <mxGeometry width="280.00000000000006" height="40" relative="1" as="geometry" />
        </mxCell>
        <mxCell id="F_466ytePDx-1a6FgnFO-2" value="Project" style="html=1;shadow=0;dashed=0;shape=mxgraph.bootstrap.rrect;rSize=5;strokeColor=none;perimeter=none;whiteSpace=wrap;align=left;spacing=15;fontSize=14;fillColor=none;fontColor=#1A1A1A;" parent="F_466ytePDx-1a6FgnFO-0" vertex="1">
          <mxGeometry x="0.5" width="279.5" height="40" relative="1" as="geometry">
            <mxPoint x="-140" y="40" as="offset" />
          </mxGeometry>
        </mxCell>
        <mxCell id="F_466ytePDx-1a6FgnFO-3" value="SPJT" style="html=1;shadow=0;dashed=0;fillColor=none;strokeColor=none;perimeter=none;whiteSpace=wrap;align=left;spacing=15;fontSize=14;fontColor=#1A1A1A;" parent="F_466ytePDx-1a6FgnFO-0" vertex="1">
          <mxGeometry x="0.5" width="100" height="40" relative="1" as="geometry">
            <mxPoint x="-110" y="80" as="offset" />
          </mxGeometry>
        </mxCell>
        <mxCell id="F_466ytePDx-1a6FgnFO-14" value="Signal" style="html=1;shadow=0;dashed=0;fillColor=none;strokeColor=none;perimeter=none;whiteSpace=wrap;align=left;spacing=15;fontSize=14;fontColor=#1A1A1A;" parent="F_466ytePDx-1a6FgnFO-0" vertex="1">
          <mxGeometry x="0.5" width="100" height="40" relative="1" as="geometry">
            <mxPoint x="-110" y="150" as="offset" />
          </mxGeometry>
        </mxCell>
        <mxCell id="F_466ytePDx-1a6FgnFO-15" value="Flow Table" style="html=1;shadow=0;dashed=0;fillColor=none;strokeColor=none;perimeter=none;whiteSpace=wrap;align=left;spacing=15;fontSize=14;fontColor=#1A1A1A;" parent="F_466ytePDx-1a6FgnFO-0" vertex="1">
          <mxGeometry x="0.5" width="100" height="40" relative="1" as="geometry">
            <mxPoint x="-110" y="280" as="offset" />
          </mxGeometry>
        </mxCell>
        <mxCell id="F_466ytePDx-1a6FgnFO-16" value="Timing Set" style="html=1;shadow=0;dashed=0;fillColor=none;strokeColor=none;perimeter=none;whiteSpace=wrap;align=left;spacing=15;fontSize=14;fontColor=#1A1A1A;" parent="F_466ytePDx-1a6FgnFO-0" vertex="1">
          <mxGeometry x="0.5" width="100" height="40" relative="1" as="geometry">
            <mxPoint x="-110" y="410" as="offset" />
          </mxGeometry>
        </mxCell>
        <mxCell id="F_466ytePDx-1a6FgnFO-17" value="Limit" style="html=1;shadow=0;dashed=0;fillColor=none;strokeColor=none;perimeter=none;whiteSpace=wrap;align=left;spacing=15;fontSize=14;fontColor=#1A1A1A;" parent="F_466ytePDx-1a6FgnFO-0" vertex="1">
          <mxGeometry x="0.5" width="100" height="40" relative="1" as="geometry">
            <mxPoint x="-110" y="530" as="offset" />
          </mxGeometry>
        </mxCell>
        <mxCell id="F_466ytePDx-1a6FgnFO-18" value="mySPJTFile" style="html=1;shadow=0;dashed=0;fillColor=none;strokeColor=none;perimeter=none;whiteSpace=wrap;align=left;spacing=15;fontSize=14;fontColor=#1A1A1A;" parent="F_466ytePDx-1a6FgnFO-0" vertex="1">
          <mxGeometry x="0.5" width="100" height="40" relative="1" as="geometry">
            <mxPoint x="-80" y="110" as="offset" />
          </mxGeometry>
        </mxCell>
        <mxCell id="F_466ytePDx-1a6FgnFO-19" value="signal1" style="html=1;shadow=0;dashed=0;fillColor=none;strokeColor=none;perimeter=none;whiteSpace=wrap;align=left;spacing=15;fontSize=14;fontColor=#1A1A1A;" parent="F_466ytePDx-1a6FgnFO-0" vertex="1">
          <mxGeometry x="0.5" width="100" height="40" relative="1" as="geometry">
            <mxPoint x="-90" y="190" as="offset" />
          </mxGeometry>
        </mxCell>
        <mxCell id="F_466ytePDx-1a6FgnFO-20" value="signal2" style="html=1;shadow=0;dashed=0;fillColor=none;strokeColor=none;perimeter=none;whiteSpace=wrap;align=left;spacing=15;fontSize=14;fontColor=#1A1A1A;" parent="F_466ytePDx-1a6FgnFO-0" vertex="1">
          <mxGeometry x="0.5" width="100" height="40" relative="1" as="geometry">
            <mxPoint x="-90" y="230" as="offset" />
          </mxGeometry>
        </mxCell>
        <mxCell id="F_466ytePDx-1a6FgnFO-21" value="flow1" style="html=1;shadow=0;dashed=0;fillColor=none;strokeColor=none;perimeter=none;whiteSpace=wrap;align=left;spacing=15;fontSize=14;fontColor=#1A1A1A;" parent="F_466ytePDx-1a6FgnFO-0" vertex="1">
          <mxGeometry x="0.5" width="100" height="40" relative="1" as="geometry">
            <mxPoint x="-90" y="320" as="offset" />
          </mxGeometry>
        </mxCell>
        <mxCell id="F_466ytePDx-1a6FgnFO-22" value="flow2" style="html=1;shadow=0;dashed=0;fillColor=none;strokeColor=none;perimeter=none;whiteSpace=wrap;align=left;spacing=15;fontSize=14;fontColor=#1A1A1A;" parent="F_466ytePDx-1a6FgnFO-0" vertex="1">
          <mxGeometry x="0.5" width="100" height="40" relative="1" as="geometry">
            <mxPoint x="-90" y="360" as="offset" />
          </mxGeometry>
        </mxCell>
        <mxCell id="F_466ytePDx-1a6FgnFO-23" value="timing1" style="html=1;shadow=0;dashed=0;fillColor=none;strokeColor=none;perimeter=none;whiteSpace=wrap;align=left;spacing=15;fontSize=14;fontColor=#1A1A1A;" parent="F_466ytePDx-1a6FgnFO-0" vertex="1">
          <mxGeometry x="0.5" width="100" height="40" relative="1" as="geometry">
            <mxPoint x="-90" y="450" as="offset" />
          </mxGeometry>
        </mxCell>
        <mxCell id="F_466ytePDx-1a6FgnFO-24" value="timing2" style="html=1;shadow=0;dashed=0;fillColor=none;strokeColor=none;perimeter=none;whiteSpace=wrap;align=left;spacing=15;fontSize=14;fontColor=#1A1A1A;" parent="F_466ytePDx-1a6FgnFO-0" vertex="1">
          <mxGeometry x="0.5" width="100" height="40" relative="1" as="geometry">
            <mxPoint x="-90" y="490" as="offset" />
          </mxGeometry>
        </mxCell>
        <mxCell id="F_466ytePDx-1a6FgnFO-25" value="limit2" style="html=1;shadow=0;dashed=0;fillColor=none;strokeColor=none;perimeter=none;whiteSpace=wrap;align=left;spacing=15;fontSize=14;fontColor=#1A1A1A;" parent="F_466ytePDx-1a6FgnFO-0" vertex="1">
          <mxGeometry x="0.5" width="100" height="40" relative="1" as="geometry">
            <mxPoint x="-90" y="610" as="offset" />
          </mxGeometry>
        </mxCell>
        <mxCell id="F_466ytePDx-1a6FgnFO-26" value="limit1" style="html=1;shadow=0;dashed=0;fillColor=none;strokeColor=none;perimeter=none;whiteSpace=wrap;align=left;spacing=15;fontSize=14;fontColor=#1A1A1A;" parent="F_466ytePDx-1a6FgnFO-0" vertex="1">
          <mxGeometry x="0.5" width="100" height="40" relative="1" as="geometry">
            <mxPoint x="-90" y="570" as="offset" />
          </mxGeometry>
        </mxCell>
        <mxCell id="EKYV59rnYQYyG5BfVOuk-0" value="" style="rounded=0;whiteSpace=wrap;html=1;fillColor=#f5f5f5;fontColor=#333333;strokeColor=none;" vertex="1" parent="S2QvFrK3PuCgfU6eUb4U-1">
          <mxGeometry x="100" y="90" width="970" height="50" as="geometry" />
        </mxCell>
        <mxCell id="EKYV59rnYQYyG5BfVOuk-1" value="Create Project" style="rounded=1;whiteSpace=wrap;html=1;strokeColor=none;shadow=1;" vertex="1" parent="S2QvFrK3PuCgfU6eUb4U-1">
          <mxGeometry x="110" y="100" width="120" height="30" as="geometry" />
        </mxCell>
        <mxCell id="EKYV59rnYQYyG5BfVOuk-2" value="Open Project" style="rounded=1;whiteSpace=wrap;html=1;strokeColor=none;shadow=1;" vertex="1" parent="S2QvFrK3PuCgfU6eUb4U-1">
          <mxGeometry x="240" y="100" width="120" height="30" as="geometry" />
        </mxCell>
        <mxCell id="EKYV59rnYQYyG5BfVOuk-3" value="Save" style="rounded=1;whiteSpace=wrap;html=1;strokeColor=none;shadow=1;" vertex="1" parent="S2QvFrK3PuCgfU6eUb4U-1">
          <mxGeometry x="500" y="100" width="120" height="30" as="geometry" />
        </mxCell>
        <mxCell id="EKYV59rnYQYyG5BfVOuk-4" value="Save All" style="rounded=1;whiteSpace=wrap;html=1;strokeColor=none;shadow=1;" vertex="1" parent="S2QvFrK3PuCgfU6eUb4U-1">
          <mxGeometry x="630" y="100" width="120" height="30" as="geometry" />
        </mxCell>
        <mxCell id="EKYV59rnYQYyG5BfVOuk-5" value="Close Project" style="rounded=1;whiteSpace=wrap;html=1;strokeColor=none;shadow=1;" vertex="1" parent="S2QvFrK3PuCgfU6eUb4U-1">
          <mxGeometry x="370" y="100" width="120" height="30" as="geometry" />
        </mxCell>
        <mxCell id="EKYV59rnYQYyG5BfVOuk-6" value="Generate Header File" style="rounded=1;whiteSpace=wrap;html=1;strokeColor=none;shadow=1;" vertex="1" parent="S2QvFrK3PuCgfU6eUb4U-1">
          <mxGeometry x="760" y="100" width="150" height="30" as="geometry" />
        </mxCell>
        <mxCell id="wJfrvK_9jVTi93enFSVC-11" value="" style="strokeWidth=1;shadow=0;dashed=0;align=center;html=1;shape=mxgraph.mockup.containers.marginRect2;rectMarginTop=32;strokeColor=#666666;gradientColor=none;fontSize=14;" vertex="1" parent="S2QvFrK3PuCgfU6eUb4U-1">
          <mxGeometry x="385" y="150" width="685" height="650" as="geometry" />
        </mxCell>
        <mxCell id="wJfrvK_9jVTi93enFSVC-12" value="mySPJTFile" style="strokeColor=inherit;fillColor=inherit;gradientColor=inherit;strokeWidth=1;shadow=0;dashed=0;align=center;html=1;shape=mxgraph.mockup.containers.rrect;rSize=0;fontSize=17;fontColor=#666666;gradientColor=none;" vertex="1" parent="wJfrvK_9jVTi93enFSVC-11">
          <mxGeometry width="110" height="30" relative="1" as="geometry">
            <mxPoint x="10" as="offset" />
          </mxGeometry>
        </mxCell>
        <mxCell id="wJfrvK_9jVTi93enFSVC-13" value="signal1" style="strokeWidth=1;shadow=0;dashed=0;align=center;html=1;shape=mxgraph.mockup.containers.rrect;rSize=0;fontSize=17;fontColor=#ffffff;strokeColor=#008cff;fillColor=#008cff;" vertex="1" parent="wJfrvK_9jVTi93enFSVC-11">
          <mxGeometry width="70" height="25" relative="1" as="geometry">
            <mxPoint x="125" as="offset" />
          </mxGeometry>
        </mxCell>
        <mxCell id="wJfrvK_9jVTi93enFSVC-14" value="signal2 *" style="strokeColor=inherit;fillColor=inherit;gradientColor=inherit;strokeWidth=1;shadow=0;dashed=0;align=center;html=1;shape=mxgraph.mockup.containers.rrect;rSize=0;fontSize=17;fontColor=#666666;gradientColor=none;" vertex="1" parent="wJfrvK_9jVTi93enFSVC-11">
          <mxGeometry width="70" height="25" relative="1" as="geometry">
            <mxPoint x="202" as="offset" />
          </mxGeometry>
        </mxCell>
        <mxCell id="wJfrvK_9jVTi93enFSVC-15" value="" style="strokeWidth=1;shadow=0;dashed=0;align=center;html=1;shape=mxgraph.mockup.containers.topButton;rSize=5;strokeColor=#008cff;fillColor=#008cff;gradientColor=none;resizeWidth=1;movable=0;deletable=1;" vertex="1" parent="wJfrvK_9jVTi93enFSVC-11">
          <mxGeometry width="685" height="7" relative="1" as="geometry">
            <mxPoint y="25" as="offset" />
          </mxGeometry>
        </mxCell>
        <mxCell id="Ifbp_-2VRm2IbCwh_HBl-1" value="不能夠新增與刪除" style="rounded=0;whiteSpace=wrap;html=1;shadow=1;fontSize=14;align=left;" vertex="1" parent="S2QvFrK3PuCgfU6eUb4U-1">
          <mxGeometry x="-110" y="190" width="120" height="80" as="geometry" />
        </mxCell>
        <mxCell id="Ifbp_-2VRm2IbCwh_HBl-2" value="" style="endArrow=classic;html=1;fontSize=14;entryX=-0.02;entryY=0.525;entryDx=0;entryDy=0;entryPerimeter=0;exitX=1;exitY=0.5;exitDx=0;exitDy=0;rounded=1;strokeColor=#FF0000;strokeWidth=3;" edge="1" parent="S2QvFrK3PuCgfU6eUb4U-1" source="Ifbp_-2VRm2IbCwh_HBl-1" target="F_466ytePDx-1a6FgnFO-3">
          <mxGeometry width="50" height="50" relative="1" as="geometry">
            <mxPoint x="-50" y="330" as="sourcePoint" />
            <mxPoint y="280" as="targetPoint" />
          </mxGeometry>
        </mxCell>
        <mxCell id="Ifbp_-2VRm2IbCwh_HBl-3" value="可新增&lt;br&gt;可刪除&lt;br&gt;可重命名" style="rounded=0;whiteSpace=wrap;html=1;shadow=1;fontSize=14;align=left;" vertex="1" parent="S2QvFrK3PuCgfU6eUb4U-1">
          <mxGeometry x="-70" y="290" width="80" height="60" as="geometry" />
        </mxCell>
        <mxCell id="Ifbp_-2VRm2IbCwh_HBl-4" value="" style="endArrow=classic;html=1;fontSize=14;entryX=-0.05;entryY=0.525;entryDx=0;entryDy=0;entryPerimeter=0;exitX=1;exitY=0.5;exitDx=0;exitDy=0;rounded=1;strokeColor=#FF0000;strokeWidth=3;" edge="1" source="Ifbp_-2VRm2IbCwh_HBl-3" parent="S2QvFrK3PuCgfU6eUb4U-1" target="F_466ytePDx-1a6FgnFO-14">
          <mxGeometry width="50" height="50" relative="1" as="geometry">
            <mxPoint x="-50" y="430" as="sourcePoint" />
            <mxPoint x="128" y="351" as="targetPoint" />
          </mxGeometry>
        </mxCell>
        <mxCell id="Ifbp_-2VRm2IbCwh_HBl-5" value="錯誤的Level Filter" style="rounded=0;whiteSpace=wrap;html=1;shadow=1;fontSize=14;align=left;" vertex="1" parent="S2QvFrK3PuCgfU6eUb4U-1">
          <mxGeometry x="-90" y="840" width="120" height="80" as="geometry" />
        </mxCell>
        <mxCell id="Ifbp_-2VRm2IbCwh_HBl-6" value="" style="endArrow=classic;html=1;fontSize=14;entryX=-0.018;entryY=0.525;entryDx=0;entryDy=0;entryPerimeter=0;exitX=1;exitY=0.5;exitDx=0;exitDy=0;rounded=1;strokeColor=#FF0000;strokeWidth=3;" edge="1" source="Ifbp_-2VRm2IbCwh_HBl-5" parent="S2QvFrK3PuCgfU6eUb4U-1" target="wJfrvK_9jVTi93enFSVC-2">
          <mxGeometry width="50" height="50" relative="1" as="geometry">
            <mxPoint x="-100" y="990" as="sourcePoint" />
            <mxPoint x="78" y="911" as="targetPoint" />
          </mxGeometry>
        </mxCell>
        <mxCell id="Ifbp_-2VRm2IbCwh_HBl-7" value="建立新的Project" style="rounded=0;whiteSpace=wrap;html=1;shadow=1;fontSize=14;align=left;" vertex="1" parent="S2QvFrK3PuCgfU6eUb4U-1">
          <mxGeometry x="80" y="-20" width="120" height="80" as="geometry" />
        </mxCell>
        <mxCell id="Ifbp_-2VRm2IbCwh_HBl-8" value="" style="endArrow=classic;html=1;fontSize=14;entryX=0.25;entryY=0;entryDx=0;entryDy=0;exitX=0.5;exitY=1;exitDx=0;exitDy=0;rounded=1;strokeColor=#FF0000;strokeWidth=3;" edge="1" source="Ifbp_-2VRm2IbCwh_HBl-7" parent="S2QvFrK3PuCgfU6eUb4U-1" target="EKYV59rnYQYyG5BfVOuk-1">
          <mxGeometry width="50" height="50" relative="1" as="geometry">
            <mxPoint x="32" y="130" as="sourcePoint" />
            <mxPoint x="210" y="51" as="targetPoint" />
          </mxGeometry>
        </mxCell>
        <mxCell id="Ifbp_-2VRm2IbCwh_HBl-11" value="" style="endArrow=classic;html=1;fontSize=14;exitX=0.5;exitY=1;exitDx=0;exitDy=0;rounded=1;strokeColor=#FF0000;strokeWidth=3;entryX=0.25;entryY=0;entryDx=0;entryDy=0;" edge="1" source="Ifbp_-2VRm2IbCwh_HBl-12" parent="S2QvFrK3PuCgfU6eUb4U-1" target="EKYV59rnYQYyG5BfVOuk-2">
          <mxGeometry width="50" height="50" relative="1" as="geometry">
            <mxPoint x="162" y="130" as="sourcePoint" />
            <mxPoint x="280" y="80" as="targetPoint" />
          </mxGeometry>
        </mxCell>
        <mxCell id="Ifbp_-2VRm2IbCwh_HBl-12" value="打開Project" style="rounded=0;whiteSpace=wrap;html=1;shadow=1;fontSize=14;align=left;" vertex="1" parent="S2QvFrK3PuCgfU6eUb4U-1">
          <mxGeometry x="210" y="-20" width="120" height="80" as="geometry" />
        </mxCell>
        <mxCell id="Ifbp_-2VRm2IbCwh_HBl-13" value="" style="endArrow=classic;html=1;fontSize=14;exitX=0.5;exitY=1;exitDx=0;exitDy=0;rounded=1;strokeColor=#FF0000;strokeWidth=3;entryX=0.25;entryY=0;entryDx=0;entryDy=0;" edge="1" source="Ifbp_-2VRm2IbCwh_HBl-14" parent="S2QvFrK3PuCgfU6eUb4U-1">
          <mxGeometry width="50" height="50" relative="1" as="geometry">
            <mxPoint x="292" y="130" as="sourcePoint" />
            <mxPoint x="400" y="100" as="targetPoint" />
          </mxGeometry>
        </mxCell>
        <mxCell id="Ifbp_-2VRm2IbCwh_HBl-14" value="關閉Project" style="rounded=0;whiteSpace=wrap;html=1;shadow=1;fontSize=14;align=left;" vertex="1" parent="S2QvFrK3PuCgfU6eUb4U-1">
          <mxGeometry x="340" y="-20" width="120" height="80" as="geometry" />
        </mxCell>
        <mxCell id="Ifbp_-2VRm2IbCwh_HBl-15" value="" style="endArrow=classic;html=1;fontSize=14;exitX=0.5;exitY=1;exitDx=0;exitDy=0;rounded=1;strokeColor=#FF0000;strokeWidth=3;entryX=0.25;entryY=0;entryDx=0;entryDy=0;" edge="1" source="Ifbp_-2VRm2IbCwh_HBl-16" parent="S2QvFrK3PuCgfU6eUb4U-1">
          <mxGeometry width="50" height="50" relative="1" as="geometry">
            <mxPoint x="422" y="130" as="sourcePoint" />
            <mxPoint x="530" y="100" as="targetPoint" />
          </mxGeometry>
        </mxCell>
        <mxCell id="Ifbp_-2VRm2IbCwh_HBl-16" value="儲存 signal1" style="rounded=0;whiteSpace=wrap;html=1;shadow=1;fontSize=14;align=left;" vertex="1" parent="S2QvFrK3PuCgfU6eUb4U-1">
          <mxGeometry x="470" y="-20" width="120" height="80" as="geometry" />
        </mxCell>
        <mxCell id="Ifbp_-2VRm2IbCwh_HBl-17" value="儲存 signal1、signal2、mySPJTFile" style="rounded=0;whiteSpace=wrap;html=1;shadow=1;fontSize=14;align=left;" vertex="1" parent="S2QvFrK3PuCgfU6eUb4U-1">
          <mxGeometry x="600" y="-20" width="120" height="80" as="geometry" />
        </mxCell>
        <mxCell id="Ifbp_-2VRm2IbCwh_HBl-18" value="" style="endArrow=classic;html=1;fontSize=14;exitX=0.5;exitY=1;exitDx=0;exitDy=0;rounded=1;strokeColor=#FF0000;strokeWidth=3;entryX=0.25;entryY=0;entryDx=0;entryDy=0;" edge="1" source="Ifbp_-2VRm2IbCwh_HBl-17" parent="S2QvFrK3PuCgfU6eUb4U-1">
          <mxGeometry width="50" height="50" relative="1" as="geometry">
            <mxPoint x="552" y="130" as="sourcePoint" />
            <mxPoint x="660" y="100" as="targetPoint" />
          </mxGeometry>
        </mxCell>
        <mxCell id="Ifbp_-2VRm2IbCwh_HBl-19" value="" style="endArrow=classic;html=1;fontSize=14;exitX=0.5;exitY=1;exitDx=0;exitDy=0;rounded=1;strokeColor=#FF0000;strokeWidth=3;entryX=0.25;entryY=0;entryDx=0;entryDy=0;" edge="1" source="Ifbp_-2VRm2IbCwh_HBl-20" parent="S2QvFrK3PuCgfU6eUb4U-1">
          <mxGeometry width="50" height="50" relative="1" as="geometry">
            <mxPoint x="682" y="130" as="sourcePoint" />
            <mxPoint x="790" y="100" as="targetPoint" />
          </mxGeometry>
        </mxCell>
        <mxCell id="Ifbp_-2VRm2IbCwh_HBl-20" value="產生 Project 標頭檔" style="rounded=0;whiteSpace=wrap;html=1;shadow=1;fontSize=14;align=left;" vertex="1" parent="S2QvFrK3PuCgfU6eUb4U-1">
          <mxGeometry x="730" y="-20" width="130" height="80" as="geometry" />
        </mxCell>
        <mxCell id="Ifbp_-2VRm2IbCwh_HBl-21" value="" style="endArrow=none;html=1;strokeWidth=3;fontSize=14;entryX=0.999;entryY=0.049;entryDx=0;entryDy=0;entryPerimeter=0;exitX=0.001;exitY=1.001;exitDx=0;exitDy=0;exitPerimeter=0;strokeColor=#1A1A1A;" edge="1" parent="S2QvFrK3PuCgfU6eUb4U-1" source="wJfrvK_9jVTi93enFSVC-11" target="wJfrvK_9jVTi93enFSVC-11">
          <mxGeometry width="50" height="50" relative="1" as="geometry">
            <mxPoint x="630" y="450" as="sourcePoint" />
            <mxPoint x="680" y="400" as="targetPoint" />
          </mxGeometry>
        </mxCell>
        <mxCell id="Ifbp_-2VRm2IbCwh_HBl-22" value="" style="endArrow=none;html=1;strokeWidth=3;fontSize=14;entryX=-0.004;entryY=0.053;entryDx=0;entryDy=0;entryPerimeter=0;exitX=1;exitY=1;exitDx=0;exitDy=0;exitPerimeter=0;strokeColor=#1A1A1A;" edge="1" parent="S2QvFrK3PuCgfU6eUb4U-1" source="wJfrvK_9jVTi93enFSVC-11" target="wJfrvK_9jVTi93enFSVC-11">
          <mxGeometry width="50" height="50" relative="1" as="geometry">
            <mxPoint x="560" y="440" as="sourcePoint" />
            <mxPoint x="610" y="390" as="targetPoint" />
          </mxGeometry>
        </mxCell>
      </root>
    </mxGraphModel>
  </diagram>
  <diagram id="TYJa8HcFWYtDeuU95z9D" name="Signal File - Slot">
    <mxGraphModel dx="981" dy="526" grid="1" gridSize="10" guides="1" tooltips="1" connect="1" arrows="1" fold="1" page="1" pageScale="1" pageWidth="827" pageHeight="1169" math="0" shadow="0">
      <root>
        <mxCell id="daI-n-khhlpTVpHMfqZn-0" />
        <mxCell id="daI-n-khhlpTVpHMfqZn-1" parent="daI-n-khhlpTVpHMfqZn-0" />
        <mxCell id="JkaeSoJjeKFLhoHXRz1b-163" value="" style="shape=image;verticalLabelPosition=bottom;labelBackgroundColor=#ffffff;verticalAlign=top;aspect=fixed;imageAspect=0;image=data:image/png,iVBORw0KGgoAAAANSUhEUgAAAOoAAALjCAYAAAAcBJmvAAAgAElEQVR4Aey9O65EsbI2tKdCclPyHgAJGYNoieCPICRA5EidoZscZnBEtAPCIzECLlH/KQNASKSNPttll+0q2+vRa3mtXVvqvV5+lKv8+VG2q37+7d/+7YPff/pP/7270rNdPV+uyAeT5XVlV9Y3kuXPv//7v3/sZzywOjB3Hfj5hL//4r/7rz74/T//3//7ef6v/6O7p3et6z/+9U9K4oP7Vlj+DXkgL/z9X//3f/781//zfzsU97/8H/6bz//+f/4fMc//6X/7X4biIW+EpT+kgbQ4Tdo9aAON+DP++HrCeWX8qXmyB3+oruJaAZV/tPtrcuA//uM/rkm4UZ1xAJ0CdWYG1Iw193gwoN5Djhh14oc/A+o9ZJqVwoCaseOyDzR8RgEMqJcVo064AVXnzZW+GFCvJK0VtBpQVzBtwigG1AmFsidJBtQ9uXleWgbU83h/SM4G1EPY/PVMDKhfZ/G5GRhQz+X/XrmLQMXiP372d30ODAP1/f78/r4+z+fT/V6/v5/3O5X/9/X6sMf04at37w/y/R3K4/15v5f/hpKeIJAIVOzU4Tt+JqDTSFjJgS5Q37+f5+Pn8/N4fl6v389vqOwOtHj/8/g8Ho/Pz89zEDArCeXRiKYf5D+W7/sFGhEeZfE0g+5H693Pz+c51gpw6k65F4F6CiWW6Vc40ALq+/f5efw8Pq9fva9MABgDzJ6F8HmP5RvDlkX5fbrG5lW8f/++HIgNqHtKzNJazQEVqEoFljL6fY73bFL81e8cjeNAfZRoRMaNcqJclwYqNqzzTeurGW0RT+eADNTfzxNDwtFa+kbvMwaYXQu8AKi/z8dHwmkLqPg2yoJdy7UiMRxyoUMvtjNpBQNnjyIB1Q8TlYqtFEgFghJ+l9cLgOoUSVKmjR7184HySYo09zsD6tzyWUVdDdT35+WUR8u0uJjTVVNZpyn+/fz+4teu8RwQb4TnL6hklB4ltQColER1bQKVQtfaYvrir+x79iEH+vsdeEH0Z2HTQwz3+16lSTegJl7e5q4CqhvGLhj2KpxAr/x4YgknVGIoph7l8Pj98Qqrn4+fP4ZGwmlieY/+/qDHfjxfHvSvp7tH3FGtr0Jmc44a47x/feNFdFUASo2bb4+wbARFXJjjEk9Jw/zz43gT06cbp81+frD05bXq0FQ/hobfNvQlJt70WgHVVX4CzspCKwCCciYpdADS38/r6ZdN8P79evlKClAyUAOk1VwxVv4S/AtpHupRkWZ73s4VT65cbunq5/N8vdzy1RNLW6G8tCSUeBHSf9ajGK+o442WXD5xeYa/lKPZ26tw4BtA9ZWrBpCb+1aI8wAAMFVlTxXHczcuuWxh9jBQPx89P5ShLG8A9qMG30doZNQ5fgibg7ouMMekDX1r/lz+zTeA+sEOple9U8ABuAJdGDZW78Fa/038hM9Kz71IKAuASgCr6EEa9UunOa9eB+I86KmnxKYSGvKGeawb/vohsOuBJcCzghpQGTPuePsVoFaMSnPRukJ7MIo9hutNqDJXiR4PVNc2YGdT3kvyYW+i0veoGlAz0APojzD/jgAtAdvWQBlQE+dveVcBlYZlag1bwgavVMH+YLf1ENv4qnQbQO31mL3vI6S6NBqNQZlGFV4a9iJSB6jhu2ugkGYB/jLb3rMBtcehi3+vgEpKk40VBz3G85FvP5TnqBcDKvGHGhyAjO6zujAGVER1fNnIbwNqxvz7PdRAxYjSb7YXlTsjLFCGrOuA2ujtXO9WKnFGCGRhqh6SfVNu/fzS5ysPexFxBKihbDuUQwSqbSFUJHjB1xJQvZJm7Vqq7yGlXmYxUHsazx0qeHMLoSbPQNfzVxv2DgDVpREaGVeOzr5ibJZoTFNFoGr02/vrcUAEKilNsDA/2q26fbGoSb4nkYDa0vrK+YS0lGEh79lWc35Fj4q8/Kij1Zi1e9S80WqX02m/hTVWXmYDKufGDe81oNLSCM5vyiBKzHi7nUK0HBMqXbGuiC2GT2xuqEDnw2t5eDAKgAhzYE9ffog9Uda/o/TFaWYrercXDHzA7qwqHb8cQxzDZ6LD7ebKwr8/r6eyxszCiUC1g+OMQxe/1YGKgvmte3TYGmujcUsg9t0CoA/sGsqrYuxtcKj8GbYOus4WW/7Cwe2ADIDcvQOw82QCZ8NQOsTzFiYC4ANY3OF1ERBt4dCZU0+Tlr+SBh+6ikE8UEGv28yBbYdkJQNKtqqsrJyBb1DGjW4hFA1wmykWUTKXfNkGaigS9roGUDqrCM5CAhbotU3jYW9uAHGqk9gzG/YAu0bAm3Uh8y7uisZA4CT1yLHSIwx6aRndQgr8le+lsnyDiZlnZ4gZU0Ej0eyGA1DRbYJ/lL5r7GIqxQ3Wm7223DWAzbB5VHNpkfPjdk9DQL1dqbcXSNf2UtoMqPTqoKttITyI0UdmY0Ad4zad3nG9vTsJlO9OqlLpaayrCNtewIMgeRE0oG7j5ZSxDagjYuHzR2/ojSuC8hRo+BoMqbkjbdgeKA3o85hbnuDOEj/8GVC3cHLSuAbUSQWzkCxR68tfLkzPgk/GAQPqZAJZSQ7H5A+Eih+9pGe7er4YH4wPZ9UBjkkb+q5s7WaOhoplf9fnAAEVJTGgXl+eVQkMqBVLLvnCgHpJsY0TbUAd59XMIUWgclXwzMQbbX0OGFD7PLpCCBGofHH1CoUwGnUOGFB13lzpiwjUKxXAaG1zwIDa5s9VvopA5RuAr1IQo1PmgAFV5svV3vKDMlHry4/UXK1ARm/OAQNqzo+rPvGjpxGovJu9asGMbs8BA+r9asIwUOHkxp+/yzcjw6S/vDU5uHiXP57DSfhMOSfnQ3OtgcocHq3iQRE/MrF8z58bRSbfNQuujdTYp7B53h3s7pyECbH0+suSneB2AKg4ZRCc+RBj6SAsGCKY53gEHx04yV6fej++1Ghkno6mjdbtjid9VY4lUJ0nseDgyFs+GKvEPvP8lIl36uQbPN94P5zjJG/RAf5lwo+cJwnWIsg/DflrcdYcKF52TadVmue5o9WKh7PmH9uRHvdwULwyI9OLdNx3bnCwC1TZeBWIJQHKld+b7jgZqABoOIXvK4VM63GsPyanEqiUK2QCIAFU7YpPMZzhH2d6peUEmWwD1WkmD2gSIPR4LH8YVns06KUzoovNtgT7RxMDlU9HO0DtnGh3TFLA6GzfKN+4HIbu4QpgKKAayFeKvw1U8MB5IkNvV6NK5J33uubrgWasjEyRqkmSHaQyQHhfvi4JcXRL8mcgLeP0nlGu5aOLXqr7fh8HaguIgSbVfMWOQFUFtYAvBlRvFQ/2iJxT42LKIrMSvRmGyRuBqo2+BoEK+0T1Ge3QI/ZQLhUM9Rp+YeCO4xY9KrVYrYmms/0qcGM3oHZ6dSFr6ZUBlYCazFh26zjMkzjZbwUq2cwtRlijQBUEun5q5XUuKJarE7cAKhle7iiFxMn7AFCdkoM8XYlu45NXaPQEZNZSkFv3lQE1AbVlUJszMvn3PA+okHn1FzqQ0eE7j496ADu7+LsRUKkl9H5LFplxbAIVQ6qgSY4u04PdGiYX2JiFgWcogmBSkhRDrQ6eC4XfG1A5UEmuRQ+XMyxWaAL26jnq6qEvTIDWGmovy6BgCraIY92ox8isVKh3SU9xK6Am7a5XlddWvxkf+K0KVA/SGmywG+sbhPybDX05W0fuNa0vKmYc7oZhpwa+LOzWOao2hQo0RJrKwoW5JGu7s9UGb5f46RRkvy/Yzg3LOcpw1ivGUiaXBOo//vXPD37yH7Ou7qybD1ggV4AK5miVg1rufEhjQJVlor8dAir1cmKlxjwu9TwkF1VuDcBFy/VSPiGevI6qgc7XB22N3oFPctmB+XbRIlwSqLrY05fIdLeYDVV/3talkM7jjjPdnwfpg67uVftxsnyVBy9AXvmUgDd4PQbUMEeT9A9VpfYy6AH1h01P3NQm1hNl91oEeNI/kB7CbaZAD1kCXOudo9wkrbY8irstUD0viBFhKJwjMbJLdH3nmNyYFyF2FB4lZUAlToxeR4FKruzzEQxEUMpoDKhc4ecA1yO4knUZAQAr5qgBqEXnmEWkXpXC4FlqZC4J1PbQN+ODeyBmaEMQEahOMGUlKNKuBGFALTjUfRwGKg1/szVVARxb56gaxV2gwhXNcqBSA+TAifpUgj3QMztQF20h1HiM9xGs1HTxwBIoBwRD86GUpAGVs3Xkfhyowggmrp3ynEZ7VB5n4H6oPpTpDNSH0Ng/Xn55j68YkHbYXZ3y6ZFWE5oa45KOY58bWwixT1bat8UJ9Ez7yVrk8F0CamRgY24bWu+U9YBgOEnKvW9UbI6a+EqMCjJ0H0olUh5GGj66EKsAJzQSlF3z6qdeKi2Iy0ZlOACAEzLS7+V8u8KDXfjeqpZNmr7/sQFUMKQzTBWHToFoCai0gaKuLamkjskcUAbUxJyxu0U9qsNLWBb7fVWaUZ+jl4EKjiOACifHod9wCkdlOOvodXWoV3fDiLCVzhi7vxZq+OC4YwhxRyQntMZSYUWg9hfaXc+X5dmpJCJd9UvrUX3FzFhLbAo9EPQN4vcT56iexKLTUOoWFcfpR6Q6GQOEVCff6yuaYuE79ak8NAeVhdcZumjMpEohJiqp0WugitvKiGjlakD1jaTcK/rhZLUUQrxsyizVAzltSkS4DvbEtewCvWId8t9GaHHpDgBaoPyQVxyTjaFvEoBraQuv0W8oHaSFZVeEwEjtOwkeJxjCXk6sm2HtTVrtobVVuKTHlkJRPi3WYdjk1vR+2mu/rTQu9E0c+kYeyJtVUGnlyk07xmh4XEzkILfAW7cCMKqQgcWQuJOIzRNpvogr321UCR31xa+zpiyDV/QqrCy8GwH1FSs2ASme4H8mkHE2eHfvaV8uadlqAPpDxW5hHAvlRUPA08QxJwqXhJKFkB+i+RiBnkUJycnP+jYHauAzubGna8lv4SjZ2+21rnn3DPtve99l/ij0EF3K9SXKKxxMj1YhAPiiIZGJcG9dXS350Ah/9KfxHvVoyiy/XTiQA3WXJC2REzhgQD2B6UdmaUA9ktvfy8uA+j3eTpGyAXUKMWwmQgSqGeDezNdpEjCgTiOKTYSIQDWXFpt4OlVkA+pU4lhNTAZUCJULlp7t6vlifDA+nFUHCKjIP66jmtvF1Q3fdBEhWPu7Pge4z+IIVP7y+kX82yUwoN5D/rzzjEClbvYeRfzbpTCg3k/+BtT7yTTTOdyweH+mSFzBa0C9oditR72HUPmSqQH1HjLNSmFAzdhx2Qc+HTWgXlaMOuEGVJ03V/piQL2StFbQakBdwbQJoxhQJxTKniQZUPfk5nlprQKqM4jszgq+Pr/szJ/uWh1nBXFm9byCUs6gHX5sXi/JfR+Fus+1Bmph4HpxUYv4Uable/7cyIQ81y+4NlJjn94fOg+tmQhlgd2tXn/LkMc/LwQqrDUEh07E2F/4+cA7WHnghsg+jlEPOrkvWWE/srzuwDmsAHD39T+KAa8jCftuXiVQqaHyXtcF6/NNcpK1Djj+fcBgADzrwdifO5jPeftwHs2dcQGy+vCARY6IbJcTLAPCAmCk54fFi4fA8S64teh6SCeXK/DeoFjll8oIUzBXM8XCDSnxMukGzkiAOVApLplPqS07UIhvX0FfYXaEgKuZiPk2SQelXwKVsoVMACIAbtBaiTe9iZEUgKdE8jaNpDSDBQbEFQChxyOKcfUmV5Sso2nQYedlMemGYb4Y5twbsUflpgkTeb4wbSbJdo5ES/kp4YV3sLu6LIozEyLGIRs/cgOzLJc5Q2tABTCer5fvyVSh5mXyHtA8z2SbSsm2lppkMGJWAX2BcTMx7WB7q3T+lJdAfkK50GBJDYgc4/i3IlBFMhwjFCCGCGilRSY6IbTjinkKL10FE0EnBHav0JsWrhBY0LGWnEW42G0TqL/tkVBeVPRm4ONGoGr2nweBCptZxejZ97SNXj4vR/GEeg3DepObC10I1B/FOl0o/O/zy0Dt9OqFDNwjLO61xtyhJRYbGCm9i71rAzUYnh4Z/kb3FluBqthzHgWqwP/1Uys0VL4DcQ12o0EXsj30lQhU7pAmUeMFpDqCCgFzVUF4OdCjOiUHmYcUXcAnk5LcU1iib+XdHwcq+fephqIFO5NXt/OAKtpwDvLr0V8Uxz0CnDRUnh2o3HFbd2eSb7m8TddSeycxIr5rAjWY/3QaRMw/g7foQvmDJRXY8XX2g5nvzVZnGfNv3TRpa0W8xrdej4pSdHskgCEOObYCVRlud3vU9+cVTJNyzmdTl3dufrRtLhT1LukmZgcqL3MXqJ84v/Cq8mHtmgoGD9IabGTouZzX+koS6wynfuX9lQS0pogjQCU/tJqCCDxKPN8I1NADVnn1gIp41dA0gf71en6cpzas13Nj3VUcz0WvGEscvVI9GAAqCkbrVGFdq+j5UtHZnQJUMKcSWIzmK0Q+pNkbqJ1KF2m57s0QUKkBFis1wJB6Hhoqq3JrAC56qZfyCfEwtYqG3eM6KtW1UikY6oiyRu/AJy2/VV7Uw1xdomsS0S8a+nKaI9OhbYNDobpbTMFFoPZBVw/J+nFSpv07L0heCftxrhZiDKikVCpHMH65JQ17UfpO40aAY9MTtyEm1hNlE0IEON/RRPdBP1ECSeudo5BSj5sWCuRR3Ow9qqhM4i9jmcUbYkQYCmtglYDqmCxUDJ5PFB693BOoe6ZF9M13HQUq+RHNRzCYv5YyGgMqV/hBCSQqGTm7Klnzj7gHwIoeNQA1DcvLONQApWVDbRR3c6B6xvieyfesIlYloErvSj5XgtgPXOit1eFbSceFn4eBSsPfbBuoAI7BHrUFHpGdXaB+3NwzA3xVP4SUQxgna9yXYA9R/gRQUdYIVklCEigHBEPDrJTkPkAFrflwThDwTV6NA9UPc7MthXHtlDNjtEflcQbuh+pDmc5AfYhA9cNnp3CSnE+5vcSPT3RkVu+qKDM/9JmPchvKpN/PM6FFIdAz7SdrkUNQCaiRgVkbWaRdCqJ8LoKPPDpa7j0v5WxYBNTQW/rhb6lEolS9DNTRyCrACY0EZde8+qmXSgvihnqG6osDADghI/1wMODnwVw+tqplk6bvfBwEKhhSzlVKgmi+KoBAAmpWKcq0wrNjMk9vK1BlRYKS+y1eLwMqW1P95WunnBUTABW7zYJ2yCkcleGso9rVoV7dDSPCVjqcBSfcDwI1CJC4IxLqBShubBaByiqF0nq54XSWZ6eSiHTRS9/YZMnRJ1y17Y88zAXvlwKVeiCnyU+qUlbyjgy+3qMWnYZStyLB+D4AwEvOUaUthDQHbVX0bH4TOUXDGqFVC8OSUtPoo0q9X11JxG1lPO9wD+2lPkRCXrznFhK46CsNqLoyLYyMtMrdlBnJeoWibhDgvh5yWQV6xYrpv+lyT0K9JFAT+ewuMNKvmeZrYW8oHaSFZRc9MFL7ToLHCYawxxf7frH2JmmQaW0VB9WxpVCUDyMbt9TIuEPjcRE9Lay7I04jCRXpXuFRBCqGjm5dszijGwoEfsmVm3aMBQ1/qXCB3Fy6yneNYTh0TgfD+TyRzyf5bqNKVqgv/phaIslvzBlVGt4IqOkUCgEp7iDBPl1hIz2ZwiBNGl1rAIY9mg5Ez/bJ/ABiaO+SULQaAJTCgoDk0j5/V9PUSPNCn3Kg5nthSR6VJQThKJk70yvy0a9t9r7LLFPoEfNJ8pL38Pq0Yp10gFfmVAIxrq4usQghpPHNV+IcVT44/k0yLO1vcSAH6rdysXS/zQHRALdmiuXbxFj6+3PAgLo/T89I0VxanMH1A/M0oB7I7IOyamx4OIgCy2Z3DhhQd2fpKQma28VT2H5cpgbU43j9zZy4z+IfCBU/0jDRs109X4wPxoez6gDHpA19v9kknpQ2Kpb9XZ8DBFSUxIB6fXlWJTCgViy55AsD6iXFNk60AXWcVzOHNKDOLJ0daDOg7sDECZIwoE4ghG+SYED9JnePS1sEKlcFH0eK5fQNDhhQv8HV49MUgcoXV48nyXLckwMG1D25eV5aIlDPI8dy3psDBtS9OXpOeiJQ+Qbgc8iyXPfigAF1L06emw4/KBPXUfmRGok8710a5wO9x2kKo7tWx1lBnFmlkGddk7t4R7twhvYsyr6Vbw1UMmodroszLuJHmZbv+XMjE/Jcv+DaSI19SrLWTISywO5Wr79lyOOf+dHTCFTezeYkwVoDTG36g+LOsLJz6oR3sPLATWTgzDbsqHrj3LAMcerhbFiSgGv6Fzmi8s5rRy0A5Hy4zlMJVOc1D35ayBKDZnJFLGKy1gGrGK4e/Hrj2r7x9k68nMUM7poi5gWLHBHZLgdYBoQFwEgPj5dZ46B6lIxpiyRGlyte1nlucgz3dtC2UiOFwz51gerMoFRmMEAfCTAHKlFO5lPOA6ps2sXT1RM8leKa1xKoVAqUHQ2XaueKAvIrGjtYXwDwxHqQzN7Un4MFBsQVGgcyl1PH4wR4kytqmGDWB43vMEBd8sGEjEAXz32W+w5QfWHaTFJ6TWdvSfm2uPToEZdFQiWQ6Q4Ckj8uy2TS0BpQHU9eL9+TDZbfe0DzPJNtKiXjZmqSZHurDBDel69LtqqyZCAt4/SeUS43CpgYqNzgYBuojhFtsKGVFhm9I1BVQanS8PNjrYV1vapItJrgpT40gfrbHgnlBUVvBvtIG4Gqjb4GgQobWMXoGa1Ds5fPy1E8oV7DsN4LBrgL3zZF0DMf+XR0AKgdM5CabdzdgOoFsieu3BDwvDH512XfBmprqFqQFt1bbAWqYs95FKgFWXh0je0qHYjXuUD86ADuAVRqtToMEXuuAaA6JQeZh5S0scykJPcUJshtwSv0EvK8ekEiUwftAXW0N0pe3c4DqmjDOQx5tTlzSzgAJykTbwRUarm8zdZSe9diiPdorQ2bvaLHaxBJIwuFQ24O9PeF5SCvHeSOftZ3hqk1bdJ+8Y99oJJcNfkE/y1xGLMVqMpwu9ujvj+vZz00dQD7CVOut1dYkRlU2awoCTRvpG8F1KTd9aryYe2a2qN6kNZgI0PPZeXZaejrbANjeWGpdpCEfJ3rCFB9Q6pPa1CJI063zlFJ6VMKvQfUMJfMR2wJ9C8sOcF5MtbrubFuZd7pFWNJjjcDKgrmLZD7tbK650tFZ3cKUMEcVXtIQ+1UQ6LSIHvFsunehhY3re360UFZZ7rpXCjAEFBJwSNWaoCBTw/W96jRS72UTwAq1tuTEW26D2uoVTxPi7ZG78AneWjAfLuoRDcEqq+lkeluMRuLy3lbl9VlEaj93rFWEvTjZPm2HgDaC6jlW0UY+TYGVFIqlSMYv9ySV+oxoGLqQkNQuCfxGxoamxBij8p3NNF9cHlRAlXrnSNjUo+bVvTkUdwlgfqPf/3zg1//jxgRhsIaWCWgOiYLFYNnGoVHL3cEakiSWt2igaUML38dBWr04lYwIimRiBVjQOUKP7eDjaJr10rWZUAArJijBqAWJGcRS/niWRrFXRKoWUkHHogZ2hBEVCZJ4C3zqgSxP1BJ6ykJryTnis/DQKXhb7YNVADH1jmqxsQuUD9u7pmN26r6ISQewjj54r4Ee4jyJ4CKskawSs2bBMoBwRCIUpLfAKofFRhQ/TA321IY1045AEZ7VB5n4H6oPpTpDNSHCFQ/fOYrBnFojm2Rbk/6Iw7X2xrjko7vP4sbHuqh7+/nmdCiUOWZ9pO1yCGoBNTIwKyNLNIuBVE+F8FXPt5508N4jwrmBRk6WZdKJGKuD6M2bKsAJzQSlF3zOtDIhnqGIuEAAE7ISD8cDMC8+kXfW9WySdN3Pg5uIQRDOvNJcegUiJaAmlUKpXCOybXGsdtmKMnJr0fKJse8wttlQGVrqjj5JDJ6AqDCv2vQDjmFozKcdfJxdahXd+ffmcTrWnMLoWMIcYfHivehNZaYJgKVVQql9XLD6SzPTiWJtCy4gSAlmhckMXPQpUCNSqUfvnbKS9iRwdd71KJhVepWpBjfB+Q7+xw1lqdngJvmoBlueOyWgDRmhmGJvP1LUqPXlUTcVsbpcvdKS+BGAf3WtkruQi80oOrDfT+cVCt3U2ZpCKsOjTXeteoPi+PrIR9lBXrFium/jdAyO1DHD44HRkKzW3qofkPpIC0sOwYHRmrfSfA4wRD2+GLfL9bepNUe17NjUdx5pdZafSZZGmIHupEHwI0tiVAsSHnw2Fe/F4GKoaNb/863aVJZUWnlyk07xsJGkfIYC+Tm0lW+Uwblle3jzuaJNF/Ele82qkCJ+uLPuSaS/Dq5PHwvCZh/6CuaYuEaplgkWHIItZqAFHeQBIsPMWy4ce7WBTfvNTjCHk13oh/bwBpb+wKIAbIklDLn/NnRkVkLgNJA62XzuFd/yoGa74WNWs+S38JRsrfba802MUS5+rXN3neZjwo9MW0pP0121PjSbiYtnEKJq9+NeidHO+wtx2RzjnoYRZbRrhzIgbpr0pbYgRwwoB7I7DOyMqCewfX98zSg7s/TqVI0oE4ljtXEGFBXs+4aEQ2o15BTj0oDao9DF/9uQL24AAP5GVAhVPzIADc929XzxfhgfDirDhBQkX/U+ppLi3u0wigFBGt/1+cAARUliUC9frGsBMQBAypx4tpXEajmdvHaQuXUG1A5N657z30Wxx6Vv7xu0YxycMCAeo96wDvPCFTezd6jmH+3FAbU+8negHo/mVqPehOZcgWvAfUmQuXFsB6Vc+O697RkihIYUK8rR5VyA6rKmkt94NNRA+qlRDdGrAF1jE+zh1oFVO9dGmcFX59fdq5Td62Os4I4GD4fO3Sa56N1DUU1UMmodbguTrSIH2VavufPjUzCQX5n+3fwvpEa+/R2Hu9x5nbU1M7MdWEhUGGtAdYVvDUGx1wcuHXvYOWBm8iA1TfYIwruCDpe4BiHj7uF1YoBezrHEbR/TiVQnZNpHuQAACAASURBVNc8WLcgSwyLyp+sdcCsqHfs9XbevX3jTRbxvYWHaFgg5gWLHBHZrrCwDAgLgJEe0aUFDoNTPVJ88EbWkQeE2hJJDCLdTF4XFgFVN3BGAsyBSvwg8ym1ZQcKccY1mA1ZVFHPoHNbniVQKTVnM+nhPW1Xlk0oUHmF2RxYXwDwlEi6ba1ggQFxBZ7r8TgR3uSKkjXsqXiTQIudf81fFxYA1RemzSTZzpFoKZ/zf9E97LIuiiAG/gt+Z1BwDagABjyfuZ5MFWrOOu8BzdcD2aZSMm6mJkm2t8oA4X35OqfA2zYSwzCQlnF6z1eoCyJQuSGlWEjHCAWIIRBaaZGJTgjtuDGfzo2rYFuBirJcwB18hxVDn5tA/W2PhPIM0JvBPtJGoGr2nweB+hHsOeWGw3Oqu08XqQsiULlpwlhQarFa49ff55eB2unVI7GtGz/PRjHccEsYhrViX+1bG6iBB+QIuFW46N5iK1AVe86jQBVoXD+1uk5dEIEq8CK5O+gohXJVQUhpoEd1Sg4yDxnMhmZ0MJOS3FNYFmbgAeAkE5IGVDDMA0+bcxJLk1e384Aq2nAOHUiPfioHv16pLiwAKrWEXqNXau84A6r7JlC9DV+vQcT8E1rk2kEy7PA+g3aQO/ppdfAVHaiUzCmvAdVzqNsjAQxxTrMVqMpwu9ujvj+vZ+F2kTknc+QFe81kBrVtEvZadUEEKndIk1d2YrJXlUN4Yg+aRwLCP7JLRg/SGmxk6Lmc1/pKEutMmU/n2StDUiADauBFAImmIAKfEs83AlWbQvWAinjVNIXq4/PzCgbVoSDLjHVXcXyZr1YXuOO2wZ1JtE4V1rVGDGErQHVDjxqlVHuEZYANQL2gO/jUpKy/681RfcqhwouVGt/4stt6oEYv9VI+Aaho0OP6azSaTnWt7FE9LXInkObfVQN08bowCNQgWmxmoIVs5y6i0beKQO2Drh6S9ePIVVruua1HTdxyvJD0D1WlHgMqXFPQENRtiHF1pbEJIfaofEcT3XvfptX6q9Y7x2KlHjctFFy/LiwCaoDr58V2jFQtFzFMAqpjcjm0pQjhGoVH79cBVeu5DajEVzfZE9dUkxKJwo4BlSv83A42iq5dK1mXAQGwokcNQE3D8jJO6lUpzFXrwoqhr84MbQgizlEl8JZJV4JYAVSkUQo45GNA5QzXep8CHJvXUXme7L4L1I+be2bjtqp+sPToNoRxnciF64KoTOIvqby9q6v02tYyCZQDgqGlA2oN6+cuVa7H51riOBzDVjg3GpjXHXyvdCPfx+aoIaVSJnHtlOc02qPyOAP3Zd4DUYbqQwSqHz5ftS5wTDaGvr+fZ0KLwkIvwJ9iY74LLAE1MjBrI4u0yx60fC6CC49XdgcvFGfxq0VAzdZUSyUSZT0TUP0oQJ1ygeRQz1B9r1wXBoEKhnTmk9rWMDBLAmpWKagSFFfH5Frj2G0zimS0Rxv61pyJCjwoC0VGTwBU+HcN2iFHrzK1caVzdahXd8NctpVOzapD3wwCNWx2IO6IJHoBVpo5hBWBGtKUNI0hfQekLM9OJRHp0l8aUAXehB4I+oaM9TFoRwarhrBUR5S94jFv3BSdhlK3YhR8HwDg7HVhGKiuIK09oS0BacykSiHWCEmNXlcScVtZlFL7ZnbhtKkf+6oNfdETyUNGP5xUK3dTZglwctoNmlv1h0Xz9ZCPsgK9Yh3y30Zomb0uDAPV94ph+2DhofoNpQMOEoubFwIjte8keJxmCXt8se8Xa29ScjQ0c+cin1qrzyTbuJ1dOA3Shz+JQMXQ0a1ryl7bwRdNlp7/vh5UW/QgN7a2Xn3XqGb7uLH++qI93/z6CltLRYUl6os/55rOpfuNOfLwvSZk9rogAlXcQuhcp3vFDwEp7iAJFh/K4mMnSqZlDS7fawAGF/FuJ8rz8ywagizdAGJo75JQshDDD46+Vl7DKc0bMAdq4HOQQ5RNyQPhKNnb7bVmmxhiGn75pvdd5pBCT0xbyg9AlhSQ4WB63M2khVMocfV7cEusnMRX34pA/WqOlvihHMiBemjWltmOHDCg7sjMGZMyoM4oleU0iUAVD44vT9tiTMABA+oEQtiBBNEAt2iKZYfMLInjOWBAPZ7n38jRXFp8g6sTpWlAnUgYO5HyA6HiR+Nherar54vxwfhwVh0gt4vIv7HXd6emwJI5nAMQrP1dnwPcZ7EB9fryrEpgQK1YcskXNMoF8QbUS4qwTbQBtc2fq3w1oF5FUivpNKCuZNxk0Qyokwlkb3IMqHtz9Jz0DKjn8P2wXA2oh7H6qxkZUL/K3vMTN6CeL4M9KBCBylXBe2RiaZzHAQPqebzfM2cRqLS4umdGltY5HDCgnsP3vXMVgdrLxHuXxlnB1+eXnQ3UXavjrCAOhvdSPuC75H6enbU9gIJDs6iBSkatw3UxNUX8KNPyPX9uZCLJo/OukRr79HYe73HmVjMXywK7W73+liGPfxaByjcA5yTBWgO8oXlrDM6wMiq5ewcrD9xEBqy+waZucEfQsI2U5/HNJ26BgOgK1gpihftm/senXQLVec2DnxayxDBgTyhRnax1/MBiR2iowTrfeD9Sutw1RcwLFjlyRsMy4Cs4/0KasksLuLlI8hKtrkQiyeVKwyp/DMtuBm0rsRiH3vKDMnHDAz9Sw6lxZjhELpEAc6BSXDKfUlt2oBDHXMncBlrO/JdXnmOoOSaXEqiUK2QCCx0AhyhSCsivMJsD6wuiORQf0PFYTDNYYEBcoXHQ43ECvMkVld5g1mfYeVlMOjTgAl0xyMk3/OhpBCrvZhN9vjBtJsl2jjQrhCntJXcA2ZLwFNY3Jir9FOxmVw2oAAY8n7medZAp3gOarweyTaVk3ExNMhgxq/yZLjBuJqbNQLpUhCiX680nBiovUxuojhEKEEMqaKVFJjohtONyQlr3roKtASrov4ggWuVf+q0J1N/2SCjPC70Z7CNtBKpm/3kQqB/BnhNZzK/AnxdAfgr14vf1EHt6OdK5bweAqlkaDIT/Pr8M1E6v3uCfG+qN+nNtpHO1T22g1k6U1PJF9xZbgarYcx4FqkDg+qkVGirfgbih98QNOTc42AYqWbbvKIXE2d5Aj+qUHDR3DGZDM5kwk5LcU1gWRn3wlcsrKzBHqpUaatSLf+gBdbQ3Sl7dzgOqaMM5DHnX9KYAJ5kTnR2ofDraASq1hF4zV2rvmvW5CVRvw9drEDH/DPZbC3Ogv85cpdcqckc/Qwoq9AbQTJP2ka4Tt6BNfi742AcqybUxNQEY4pxmK1CV4Xa3R31/Xs/Ss1wxInjn5kdls6LEPNS7pPy8FVC9O4GkJh/WrqlA9SCtwQYVu28Q8m++ksQ6QzxfdGXaR0UDuSi5yQOPAJWMq2sKIlTixPONQA09YJVXD6hhLpmP2BLoX1hygvNkrNdzY91KY+wVY0l4NwMqCkbrVAGwRc+Xis7uFKCCOZXAYjRfIfIhzR5ApQxIyJ15NwW/6HUIqKTgESs1+JR6Hhoqq3JrAM6tq2uNY4gnr6NSXSt71FBHlOmYA5/koQEjrNTyOMneEKi+xkamu2EkVP15W5fVaxGofdDVvWo/TpZv9yGAVayg3ciXCDAGVBpCCsPfqlJ7GfSACtcU0RJ/nHY0NiFEgPMdTXTvfZtW669a7xwlQ41x0dAI7lJuC1TPC2KEb/HawisqgWNy8S4yONxE4dGHvYFK634dOij7C15HgUp+RPMRDOavJW/GgMoVfm4HW493lazLCLQ8xN4HoBadIwtADVBaNtRGcTcHqueJK2ToWcWOVepRpXcZi3MntP7TF4AatNktYZdkXel5GKg0/M22gQrg2LyOqnCvC9SPm3tm47YBoFID5DoRhFdGT5cE6j/+9c8Pfkv+IlilGi+BckAwNB9KSRpQl8gEYceBSqOL1PtAyVSPkkZ71IWUDtWHMs2B+hDA/Hj54TNfMYhDc2yLdHuJH3G43tYYl3R8/1lcnqmz/f08E1rqz+6NZ9pP1iKHoBJQIwOzNrJIuxRE+VwEX/WINMvh3aqEpoy0CKi0Vu5kXSqRqHheBjWAw/dVgBMaCcquefVTL5UWxGW9Lg4A5Hu80zMOBmQuH1vVsknTdz4OAhUM6VVmmq/yiXsgWgJqVimUwjkm8/S+AFTkoQyHFKou9XoZUNmaKk4+iY3zBECFf9ewjdQpHFvyc3WoV3fDXLaVzslSF4EqDX0dQ4g7ItFegJVmDmFFoLJKobRebjid5dmpJCJd7ZfIo9kit6NP/3UpUKkHwjJJxvpY0o4Mvt6jFp2GUrcSuc+hPbyzz1GHtxDSHFQWHoGRzW8ip+ib0KqFYUmpafRRpc0QdSURt5XxvHEvbUl07yVlSRn52s8aUNHwyg1UGBlpvUtTZiRrLe0GLwcB7ushH2UFesWK6b/J5cxpmR2onNr2FsLASNfSFh6q31A6SAvLLvXASO07Cf7hD6MjCvb94jC6pEGmtVV3LvKptfqsWJQ+8ndu5/3aHLYk3nnISxwQgYqho9PSy17bUWnlyk07xsKuseIQOE62+HSV70RUeWX7uLN5Ip9T8t1GFShRX/w510SS35gjD99LAuYf+nKKO0B9xU0NBCS3f5ZZfOCJ4R6bIjLNWnD5XgMw7NFEWm4bWMNFewAxwiWhlDnnz64hcWkj/WShIg91z6ccqPle2CibouGVjpK93V5rtokhyBLmeDBz6X2XuavQE9OW8nt+ZI1s2Boa5ayFUyhx5nga9U6OdtjbBQfHD6PJMtqRAzlQd0zYkjqUA6IpFq5hOpQay2x3DhhQd2fpKQlyTLaHvqeQZ5lu5YABdSsH54hvQJ1DDl+jwoD6NdYemrAB9VB2H5+ZAfV4nn8jxwyoECp+9JKe7er5YnwwPpxVBzgmbY76jabw5DRRsezv+hwgoKIkEaiaAe7rF/fvlcCAeg+Zi0DVXVrco9B/qRQG1HtIWwTqPYpmpQAHDKj3qAciUM3t4j2Ea0C9jxy5z+I4R+Uv71PUv1kS61HvIXfeeUag8m72HsX8u6UwoN5P9gbU+8nU5qg3kSlX8BpQbyJUXgzrUTk3rnvPl0yHgeq9S+Os4Ovzyw6F6q7VcVYQB8NnY9Ry9/GzlaBHTw1UMmodrr0Equ9F/CjT8j1/rhJJL9483Nh9ity6Wy5bvf628jnmG5+ODgAV1hrSwWtnWNk5dcI7WHngJjL8wfHk0l222HBMMctcyC1Hw3J7GeWizyVQndc8WLdwFh5k7996UZO1DnjG84693v7gOKw0PLkjrnBIH/Ul5lV70YNlQDVePASOtIJbC9GbOad4pWxhwUQzP8OTP+l+EVB1A2ckwByoVCYyn1JbdqAQB16DaZZhB1cHkvaNrEqgUh7OZtLDe9quLJtQoPIK3sH6AoCnRNJtawULDIgrAEKPx4nwJleUrKNp0OWyDSZkBLp47mfeLwCqL0ybSUqv2bMUt4gDsMW6KEIKzECaXt77TgMqgAHPZ663U4Wa88Z7QKsNzGWhekbKyPZWmWcvXsjE0S3Jf4NsUS7nO/cWQHWMUIAYmIhWuuS/+7QjUFVBZbVFegitpkigFP4e75pA/W2PhHIOkMXGjUAVXWck64Vd8bx/BV3HBtmiXsOw3gsGuEtvcTkHznwa71GpxWqNX3+fXwaqF0hXmAJHpxp+C/R961UbqMH6Xnfe54HkLRNuBapiz3mwR5X4tF62XueCKu2G3lcDKjeklBgTWq2O+4eoBEwRVQPcPIhTcpB5SMkOLzMpyT2F8TTU+9DIaPMqNd4NPvSASv59erxJXt3OA6pow3mDbAFOMid6SaBy04S8rvqWy9tsBViG/5pDX2/D12sQMf98BRutuTlQ2OF9Bq0id/TT6uCJPicE6jUWuY+nFK577QNV6eF4kQGGOIzZClRluN3tUd+fVzBNmpPGFGKLZIt6l5SflwQqZ0R+T0z2qvJh7ZoKVA/SGmxk6LmcE/tKEutMTpzyRDQ/P0vdxysJXur1CFC9yxHduj0qceL5RqBqU6geUBGvGpqul61XjCVR3gyoKBitU4V1rRFD2ApQwRzZIjvy8RUiH5KtAWpIRxmyOwFpVvyTHC97NwRUUvBUQPDyfrGeh+Siyq0BuOilXsonxIMnhmjYPa6jUl0rlT0rZVt5Ub/oHJU7pNFqaGS6W8yGqr8xFBaB2gddrSTox6no1VrwGDC1ypLWPwa76M0YUEmpVI5gghIpdaexAe0BFa4poiX+uOmhscEkAlzaneR9m1Za2VWylUdxs/eo3HHbwM6ksrZSJQ9DYQ2sElAdk4WKwbOIwqOX64Ga1TVKLlypV22FKaJc5nEUqNGLW8GEpESiInsZ9IDKFX5uBxtF166VrMuAAFjRowagFiRnEUvZ4lmifXag8kKtAKqPTszAsEXEqgRU6R2nBveVIL4DVMpHEmBJ0tWeh4FKw99sG6gAjjAlUXnVBZzCwYF42C+ejduq+iGkHcI4enFfgj1E+RNARVkjWKXmTQLlgGBoPpSSXAHUULFSGh1hCp+v/GocqH6Yix06kVeYy1Ut72iPupBrQ/WhTHOgPkSg+uEzXzGIQ3Nsi3R7iR9xuC47oirzP+55cOj7+3lG6WnEeab9ZC1yCCsBNTIwayOLxEtBlM9FcPHRD8/rCscCB1q6RWRRrnK7CKiZAg98S8sXqbxeBio/VwFOaCRSho27ZbLFAQCckJF+OBiQuXxsVcsGRd/6NLgzCQxRhrWRMs+0YaBmlSImkt84APHKsgaoYZ1QGfK4DF0+vfLlpF3laRlQ2ZrqL1875aWdAKjw7xo0f07huINsZx/6DgI1CJC4w+UW770AK80cvks9qnsNJZQOEMe8LM9OJYm0FDdK/jEUvreEHQNe72YpUGm+7hxWi2rwjgy+3qMWncZOsr0NUGkOmuGG19uWgDRmhiFnvlZKiUpq9LqSiNvKKIl4Db29SLz/pg7lYhrXvNGAip5ILnPgldZwNWVGjbKWdoOHrfrDovl6yEdZ+8j2NkCl3SuupS08VDuP3uqmgcBI7TsJHicYwh5f8mhe6TFYL+zORT75jhkmTfEWwN/mPl5MdvKXIlAxdHTr3/k2TSoKKq0GYr6NtFK4wBu8SzeMlEa3mbJ93Nk8kc8nX2FrKdKvGtztsr0RUF9xUwMBKe4ggUkWYSM9NkVkmrXg8r0GYHAR73aiPD/PoiGgCuSuqAwh3Gg9SPG3uY9P6VznLgdq4HOQQ5RNyW/hKNnb7bVmmxhiGn7JpPdd5phCT0xbyu/5qRoIl/g22bq6WvJBJvqUt8Nz1FOos0w3cyAH6ubkLIGTOCACdWQL4Un0WrYLOWBAXciwSYOLQJ2UViNrBQcMqCuYNmEUA+qEQtmTJAPqntw8Ly0RqNrB8fPItJzXcsCAupZzc8XLDHBDqPiRKRZ6tqvni/HB+HBWHSCXFsh/9emZudoeo4ZzAIK1v3txwIB6L3m60hhQ7yFUc7t4DzmqpTCgqqy51Afus9h61EuJboxYA+oYn2YPJWp9+cvZC2D0tTlgQG3z5ypfOSatR72K1BbQaUBdwKyJgxpQJxbOHqQZUPfg4vlpGFDPl8FXKTCgfpW9hyVuQD2M1edkZEA9h+975yoClauCpQxxHvXlzgy+Pr/sUKjuWh1nBXFmVUrtmHfOtmzTDf0xdBydSwXUjAd9aiS++ViSoWy8k9NU08no4WnK6WRvt8TNEpr/QQQqX1zNiwBrDfCA5Q+KO+Y7p054B3fz3ETG5+Os6UeX7rptpDyPLzwFMx/OWW20QBDcJNCzZnrkC+QcmWQJVFjicxb3XLk7MoHTJXLahfCPZOneed97QeaJj97R1zu3vYvCBudNMSxPJ9ATv8GlBerXr5BOwTgqy5q4RVLTP4pA1ah2ZjgqMxgITeZWcqBSOt58R6dSUOAvXJ19oOfvR2rV8Q7W4GXTI18g5uAkS6BS9smkiiwzCuev3sSKKHpqBMWPeSrenI+cn7eFtMLWErMpfVcZgosiUGkDcM7mhrAQsGVyUzNulmcw+AS7rINBia5mb+lHCbV5mAV5TBy0D1TJBlFZoAaPgs2rIZAgrCaLQeNmJWXueUtcMcH5XtJBGVAW11H5kZpIcguIIRBaabFh3RGoaHnFPCKh+Q0MrzVB6Molt/J5Std8agH1+ZuMkbV5CqAqPFoKVC2jLWDbEvciYuVHTyNQeTcbyzEikN+nDKLdgNrp1SOx4zduyKVVnvFkpg3ZBiqNhDDPVIDoSmZAnUnAbaCSZfuGwWwURlT6DQDVKSfIPKSkOmQmJbmnsG0MRAVURgHbEp4mdheobI6nGyE3oE4jUD70FXvUaFPX22wFWIb/mkAN5j+dpg/zz2C/tXCQ/OvMVT6clpE7+mkOa7sEooc+T8nVJW+HACNATcpATZljQN1BFJuS4AYHOz0q8vE9EC1zPKBJHcleBaoHaQ02aGJ9g5B/23noC7o05cZIuS4QZgyofAgsNVwG1LNFzTvPAaCCXL+cQWCFZfNu56oAFfNDXVsYFB3Z/HFfoLplm7wlOFseu+c/DFTk7OTkvQnkDbABdXfBLExwBVB9Dm4zQ1zsxkJ4LtqMDhGofdDVvWo/TpZv82HPtJoZnfpxEVDZ9CZvQA2opwpRW0fl6G0TWAyFNbBKQB1Y7qEWPnWqO4LL0dTSdLZLfpWvS4FKzqMzh8ZuyqPwamQ1gJiFsEmY9NZfQ2+ufc4DF09b4hZJzfrIMTk49K2LQrtKVBeKElCld2XSoRIk4e0H1LsvyxArlwOVz1cJnNajEj/Puu4CVBAfwZpQlcokgXKoFSyBWT6nLJbd+ZGAROqydOYPvQqolTwNqGdLehCov59nt1Z7EIkL5xJQh4ZMJTDL55Xsc3lL2s2V6U0cbS1QuYYfS3G2M+lcIYtA/ce//vnBL/1BUL2K7XupYaDSBopWA+AARcMvULMPUF3vf/NlGZLdeqAmfnsNP5cDpc7CtORIwX+fupZ/aIQVEip3wG2JS7RNfhWBKtHsNLBNYYQeVQKA1KNGDaPeANTzSJ9HrpGUqG298w3KtjRa6c/1bRtQ2ZJNY4uh185rQE78wCklTd9YKw5TvPxO6DSGgSrEzROf9mkYqDQHVbHaYpYCVH/iRju9IW2GqIGKY2qL/ioF1aLYlwvcAupoY9UFYpB97QmcsQu9qVp5UoPQCpLW8ItGoVX3Igm0/l/Ejd/nvhGBWg99EyOh2S09guOECg7vyoKnIbHyPQAHO4TIazl5NJdaX1pbxUH153PZSRonCifUawprTVWSgAp5+eHsQ/HeXeaEBrLNM2rIvVEBHh/WPR768TYEhRd5WpNHPaA93+wKiyLxgDhH85a4nMzJ78e3EGIPbkAOAekBaw/M4kNZVuduXXDzXgMwuIh36T2rhiBLF4IJ4bo7orKI/sEdEueCFsLc6VUO1MDnUiavga2gMHvSY4wz0RPqRKwbz0ZjoNBT0lc8v5zgt8TtFWTu76vXUecu1t+mLgfq3+bFXUpvQL2LJFk5DKiMGRe+HT84fuFC/mXSDaj3kL5oioVrmO5RzL9bCgPqPWTPMWlD33vINCuFATVjx2UfMqBCqPjRS3q2q+eL8cH4cFYd4Ji0HvWy7a1OOCqW/V2fAwRUlMSAen15ViUwoFYsueQLA+olxTZOtAF1nFczhxSBKhrgnrkURpvKAQOqyppLfRCBKru0uFS5jNjAAQPqPaqCCNR7FM1KAQ4YUO9RD0Sg6m4X71Hov1QKA+o9pM19FketL395j2L+3VIYUO8he955RqDybvYexfy7pTCg3k/2w0DFeVQc5H0Gz9DEChz4lc8s4uwgDoZTyPOunHaca5yApK8yowIqzpXGXz/rFDbF87HScx5GTjMP4+O6kJGWMj05neztlrhZQvM/cAXvAFC9zRl/ij8w1jl1gjt3nMDPrQA4a/oPch3fsJdzCJ/8gXNnnSIIGI6nHn/MSdT7F43sI1l4aLVU8MZOTrtggeGRrHugwfP8I/n+fFy9kBo/pON4HcLydAI90XrDD+oSrDz0G1Eqy5q4h1S5HTPhS6ZdoOoGzsjcSg5UopPMp9SWHSjEt68No1Y3N81S9aiB1V4mAI4ss1wi3lSKaBiDzLqIH/NUvAEzOb9oymVFJdkSt6Bw2kc+He0AtSEsFK9lK9cJc68eFa4ZF/IT+asVyTcy6ueFWc0WvA9UzbgcL0mjoQs2r2R7WTyNUEckK5UIFgC/Sg5b4hYkzvo4DtQWEEPp0EqLjN4RqGg9xTwaHHYtrhrp7wL1+ZuMiqnscXwFj+SekCxJDgNVy2gL2LbEbdSbmT4tBKpiSZBKVBpGZu9VvzQUZuja6dWVNPzQSKlozqj3Xr29QsCJr1s9qsMMWYFsDoENqCeK0GU9DlSybN9Rvoi6iYEe1SknyDykZKsXmuagmIKLBdIiDjGwNTwDbdpwbCjxuQN1gcr9zKh8MKCeLeUFQMU0gjR8GH6KkJTL0wRqMP/pNH2Yf74+TwCycJAMrSHs+Dr7wQ/c+9+Y7sEPb2HLNhuiDQzn5QJd5+0IULmfmYw/sZgG1MiKk25EoHJDSjldqcK7Sv/U1k3zWF5RIA0vJWv4iAur5mgUyjjrhr6eGuTlGxqv/n9+HkVjUFB9i8cxoJIyUOK5l4fNUc+tDiJQuWnCmjxyDRB615HKrvSomDvKLThyDYqOTPmwBaghzbiuC8XXglFBzYhLvBkGqmNPsKBfDYGtRz1b2CJQR4hymxnIDYFzc9Go9CJQ+6Cre9V+nDbtqHAPN4T2Lh2KoXA78iW/LgKqWyUJo45sTmFAPVv4q4HqCS+GwplwWdEkoI7MD108vuSzBajFMDtqO+8N1qVAjSOZH853AyqrzafcikDlDmlGqPLLH9r8hhazi/mmBN4yswCmNPpdC1TfoKR0KCNqaAra6PMNrsuByuertKRlQD27KnDHB4Ca7gAAIABJREFUbZ2dSW1SI1hrNIRdJwUYqt5SSr8EZvksxRHeIa9q3kXhfJr6ziUKd83rKqDyJRsnTwPqTNJvAPX385QAmFEfKry0cC71nqG31JVJSLwEZvmcEaA+uEakQb+bC6tAVpO9xIe1QOVLNlC6mdZ3HnE3gApBFT1iRTfCYPhLwyUWQAKqqNVlcXDrwMzTWwdUB8QGUN3ykQG1YD4eqfFV5OpihDAt/lLK8KPb1GPweTFFEq7lDrih0VlIp4wrJD/jq+Ghb7eyk1ClCi8ClTZQ6A1A3RP6SqEKW+GwS0eii8KDvpGKRuEvdF3fo4ZCBhCIDXAM0gJyYhZ802o4Hd+UL3Qaw0AV4ibypr4TlUn8JVFPc1C1PreY5b4JQiLNq5hooaV1hNRAxVbC7l+llMpjoAKJJOTBLvnUAupog+eXyfjIpmAFgbnFRPSmne9YMmsF8RthcJa2oKVV9yKptP5fxI3f577hmGwMfUlz6zW77vA1KxdczbutfWJzSUNiZRmEwAqX8AF02PcLr+JScr7S+IPq2FLYFmwi0jc0j8L7dTjQPJpISu4ydxJQIS+/jlzyQysWGsh2BaeG3BsV4OmAx/BC/tKtaUDetCaPekB7vtkVFkXiAXEury1xOZmT3y8A6uvzDMghID2i+/cEMl5ebIqgPbn8WgPQAwbgxLa+siHgaX4CiFdt/6tc17fc1me5XvYhB2rgc9gnHWXyGtgKCqsYPS5U/PUNKkzeyH8KPSV9xbNPb0tcmZqZ344DdeZSGG0qB3KgqsHsw+QcMKBOLqCt5BlQt3JwjvgG1Dnk8DUqDKhfY+2hCYtAXbqF8FCKLbNFHDCgLmLXtIFFoE5LrRG2mAMG1MUsmzJCBlQIlQuWnu3q+WJ8MD6cVQcIqMg/rqO2D45P2eAYUQoHIFj7uz4HRAPcuimW6xf4r5XAgHoPiS90aXGPQv+lUhhQ7yftOPSl8fD9ivj3SmRAvYfMze3iPeSolsKAqrLmUh+4z2LrUS8lujFiDahjfJo9FB/lGlBnl9YK+gyoK5g2YRQD6oRC2ZMkA+qe3DwvLQPqebw/JGcD6iFs/nomq4CK86g4yPsMnqGJShz4lU8e4uwgzqxSyLOu7w/OyDrap6Dn+3yogBq8rXsnW/38yRkXv/pYyVEX/6YZ3MjD+LgunYwenmafts+WuAPJzxRkIVC9zRl/ij8w1Tl18geEH4UVAGdNP7qQkC02HMYMWJLg7jeCd7imeZDDiPteRiVQ379oZGHOxFvrqA/xM1re7+S0C+HhZSAcMnfe917M6gIccIWGu2qPkQ4Py9MJ9ETrDT+oS7Dy0D+oTmVZE5eV8hK3IlC5KpiXQjdwRuZWZHMdZD6lWSl4Rrvfw9SH1FB4ukdtB+1O1gEJlkClLL1MxoySkTVCbgGF0iGjZEPG4ZwJGLmORFMuKyrJlrixHJPfiEDli6uJfm/XRhQWAjnbRxIYyN6S8i1lMHgH14yDQUMwJ0iNcFd59qJtGV1HhO4D9WfAAqMfSYkYCjavhho7N6pRbCcNGShTOLYlrpLkbK9FoIpEtoAYIqCVFvGwIxgAOjEPkWi89A2MXpF639WEL/GhBdTnry/7iPU/M8B9rrhFoPINwJG8kZZTM268G1A7vXoklt0EunVwh2F7y0oeS+5qt22g0kioNwQGj+Qhqx9JKRYmS2ZBFpogtvSKW+KWNE76zA/KxA0P/EhNopta3/YwsVIkIIEBoDrlBJmHlFSHQfnjW/+kHUz0KXcDQvTzNaUiKsle5XUXqNzPjNpYGVDPljc/ehqByrtZTmBSQGD4KUKSB0/3TaB6G75e04f558t7BucaWmD9heWgh7cfDJOiwYSkOG9KOYdGQhmSh3BeGdFugHiSV7ofASr3MyNPEQyoM8m8C1QuUPRsGMYMwVUFqmZoG1bNpeWD9UNfuQJ69htQ+RBYarAMqBcDKsgl1wAAEtbWnv2NDApQARAdQGGonc1pVgC15RMncN+AGhgRpgm1i0oD6tlA5QYHB3rURK7bzEBuCH6wEN7oW0Wg9kFX96r9OInCdOeBqCk8UAl7ypSU1tXuxoa+qVQ0vckbUANq4tA5d3w6ugionlyq5L53zYXLCiQBdWC5hxbTU6e6Dqh8yP7AzhraegYt9ZPmxMr6HivGFW+XApWWs/IlGwPq2bLfCFRPPvVYP+LuH0XrK4G35Ea1tLIWqIFO7gsn7vX1aaqNTEnTxZ6XA5XPV0kTbkA9W+y7ABWFiGBN3V8qmwRK966tjaXWPSW5DaiJoHR35/kpSrkKqJU8DaipxpxzNwjU388zoUWh1IOo8l2J0BJQQ2/Z7slKYJbPCinDrwPN3bINJzhdwLVA5dMFLMXZhodzRTsIVAhKUttz4hFGUcpIQCVtbAskDsw0/EJe+wK1Vlbx8tzjfj1QE7+ddr84GZW4s6Cxgx9dTek4NMIKuZY74LbETQWZ+m4QqOgUe5u3g8Ck3S0iUEOa2ryWhl8ZkH0eqrAXsJqG6lnyC+JfJeg2oNJoSGmAAxN8g8cbVJk78Oyu4bRWHMpp+J6+SGcYqCMdjpbvue9FoP7jX//84Mf/uhW7xSwFqLRPVD4iJW2GqIEKDe7SP/K4vQfgl+Z9dPgWUEfL3wVikL0sx1Bi9KatVrFVfyLTaA2/aBS2xI1pz30jAlUkmYTh1kzzHUmo+Di8KwuehsTK9zBXxSL7bwAdeTSXWl8arj7cFsKFJ2mCR2xs0pDSFst98ZcSUKmhclr6oa2gaCALcBR8oYbcGxXgH3FoHJ7kG8tf8CJPa/KoB7Tnm11hlSMeEOeA3xKXkzn5/QKgvuKmBgLS4wEBhBP5Qs+GTRG0J5dfa5AEN+8uvWe0IiDyDoIJ4YbqGIbQb5hfAa3Pj+6mXszt8i9zoAY+h33SUSbBakOzsFh7bgYAo731iFgvXN1o8Vyhp6SvePYy3BK3V5D5votAlYa+85FuFI1wIAfqSAwLMyMHVm8hnLEwRlPNAQNqzZOrv1mxhfDqRb4//QbU+8nYgHo/mao7k25Y1FsXadHB8Vtz4qaFsx71HoLNTLFAqPiRhome7er5YnwwPpxVBzgmbeh7j8Y3KwUqlv1dnwMEVJTEgHp9eVYlMKBWLLnkCwPqJcU2TrQBdZxXM4c0oM4snR1oM6DuwMQJkjCgTiCEb5JgQP0md49LWwSqbID7OKIsp/04YEDdj5dnpiQCVXRpcSaVlvdqDhhQV7NuqogiUKei0IjZxAED6ib2TRNZBKrsdnEamo2QBRwwoC5g1sRBuc/iuI7KX0q04zwqDvLCJi48Q9MfDvymJ3qLK84O4mA4f3fy/cj5SneWVS7rydQPZ18BlWwau2s/mWgDmcXzsZKjrjyMnGYexsd1IVm6eRg5neztlrhZQvM/8M4zApV3s3kRvM0Zf4o/CMo5dcLhcZzAz60AOGv6zuAZbO4Udm7yhA978ofe2zaAPDHe7AcsE7gGBu7tn49P7e7hMNJXZVQC9f3rD3d7g2UdmaDM5LTLuS+BRwTfGIOPcNwVrS44X0S+4a7aY6TDwz5YOoGelE4wRPDbP6hOZVkTdxUzJ4nUBapu4IzMreRApXKR+ZTasgOFOOAKyxDBUoAXrEwrUeJorsyHhHJyUyAUYdJrCVQi08tkpMFCDG8qRSw2megRP1Ju4erCynyPplxWVJItcQsKp33kCt4OUBvCQvGc7SOlhXYCUr4tZg1cMy6OlEXwgpUrjAsY7DiJdS9UTPFblsscD32g9qxLohx+JCViKPBKtpdV8ABhq8YvhNnC1y1xCxJnfeRLpm2gtoAYea1Yvt8RqADZVpD0gNr+fq1etQXU528yKtbmKcqsNGxLgapltAVsW+LOisyCLj4dHQCqYkmQEi0NI7P3+8xRO7065de5DgFRa/mdqdvRIWOHkAM+t4FKI6FeeQyoB4iqmcU4UMmyfUcpVCkSkP1Aj+qUE2QeUrBo6CzcBcUUXCyQhrBZOuVjE6gDPYSPv9dQXiFyp9ddoDqsPoKvW82kpwF1J3GsTmYBUMmyPVpfDD9FSMqENIEazH+6pR7MP8kNYu4gGVrDJ0x+Qrv4wL3/ifMmmYr4tgnUkWHUSJiY27k3I0DlfmbkuaYB9VwpfqIxB9DRHvo6SiEwANX/YPl8CK4qUCVr+MgISyG+QciBeMDQdwSEA73u2YKl/MeAyofA0kjBgEr8POu6qEf1RJJbgQBYKBl6aFWAip5NbsGRU1B0ZMqH7wN1aFh7R6A6lj+VIbAB9SyAUr4iULkhJQpYXt1mBnJD4NxcNNAqArUPurpX7ccp6ZSeW0PfPw3UqCgrlYYGVKkeHflOBCo3TdgmphgK5+PUFFUCquuVpGFWilZ7+Po+UEcUX+TcSh8NsDKcfDs89I10eh5jepMGMwbUyJ6TbkSgLqXF90LSnDKkJAFVeldmHIaYqcIcBVReSUui0nzunkBN5UtOqQ2oQi049NUuQAXFEawJVakgEijduw4gqq1rBwB1ZP45RHsq/pl3y3tUT20uTwPqmTJE3iJQuUMaTyD2yfb27dGQSdjBIgF1BBBnAFVUYuViGprH5lFOe1oLVL5kg6U425l0mghdxtxxW2N5BoLqzCfdflAMfweBOgAIPxfk6R3Qo0aFCs+XCwm8+LnMKZr1QEWZqfFV5OrYEsJ0G3LHWF3Lv2SUUu6A2xKXi/Yi9w2ghs0OTWEEgUlb76QeNQJCbwBcz5Xl6fPYOjf0PaIGRF+h1C2PQyOBeSS+DajEixZQaSNMg5+BHTgmqOkba8WhxkOh0xgGqhBXy2bi902g0pwlww0vTItZClBJeyq7lJc2Q9RAxVbCpX9doNLoQChsP+5Sar4bvgXU0QbPL5M1gBhkL8sxlA9e6QV+xtK36k8MRGv4BS1b4sa0574ZHPryljUd+qWiwdW829onNpdhqIitf9L30EPhQPZvAJ0/3C23vrS2ioPq2FLYkj3Rl13fr+iG/inREwP7RoFvlfTllOmK0Sa7kYCKcsSD493dKigQeFGAoygnNeTeqAD/iEPj8Pau7SOGJtLz2tGEekB7vtkVFkXiAXEu9C1xOZmT34vKJP4y0o89uKFiE5CiC3js0xV6NmyKoD25/FrjI7h5hyt57ONtuaqHYEK4oTpGBYjmY9I+YaLJu5qngPzqW/C8nPz7/Pc5UAOfwz5pKn+T31REmD2he+3qeAwZst/z+Wny1+3hrmUSaStpjekpZRHC87R0WrRCzfGeY7I59J2DXKNiKQdyoC6NbeFn4YABdRZJfIkOA+qXGHtwsgbUgxl+dHYG1KM5/p38DKjf4es0qRpQpxHFJkIMqJvYN39kA+r8MhqhMAMqhIofbSGkZ7t6vhgfjA9n1QECKvKPWt8RhFuYa3AAgrW/63OAgIqSGFCvL8+qBAbUiiWXfCECdfzg+CXL/KeINqDeQ9yiAe4RUyz3KP79S2FAvYeMF7i0uEeB/1opDKj3k3ico/Lx8P2K+bdKZEC9h7wXul28R6H/UikMqPeQNvdZbD3qPWSalcKAmrHjsg98lGtAvawYdcINqDpvrvRlFVBxHhUHeZ/OX0w6pYgDv+mJswFnB4Pnbv76zPuR85WcvqXhedwT7yugohzx1ycshU3xfKz0nIeR08zD+LguZKSlTE9OJ3u7JW6W0PwPC4Hqbc74U/yBsc6pE9y54wR+bgXAWdOPvmrmsIzgD723bQBxsS0Nz+POcF8C9f2LRjZ4b+t45vu838lpF7wiPJJ1D/AFjrui1QVY8AgNd9VYIx0elqcT6EnpoC7BykP/oDqVZU3cGWSzhIZFQHVmULgZjJgTmVvJgUqfyXxKbdmBQhxwhWWIcPrfC1amNVKyNHyMONdNCVSizstktMEiszQUm13JrItYL1g43LqwMt+jKZcVlWRL3ILCaR8XALUhLBTP2T5Sek0nIOXbYtbANePiSFmEpQbKlobPMjv5oQ/Un0/TKJmjv2G9b4lVRoTVbCcFwI/gvWLplrhVYnO+EIHKVcGR7BYQQyC00iKjdwQqQCPmEQnt3ywF3tLwfQqOC9EC6vM3GRVr8xRAlXtCsiQpGq4ri4k6pGW0BWxb4pY0TvosApUvrka6R1rO0jAyRd4NqJ1enfLrXJcCb2n4TvaHfm4DlUZCvSGwAfVQoQmZiUAVwgWTkRBoewhbKRKQ2ABQnXKCzEMKFg1hUpKcKMOEJ2kRZVrbb5cCb2n4du7Hfu0ClfsN0oalzs6x9ajHSi7PTQQq3wDMgycFBIafIiR58HTfBGow/+k0fZh/vj5P5zIid5AMrSHs+EIR5EyKBsXQCt1DcGilVLxEdby7O1C5nxl5CGs9aqwMJ93wgzJxwwM/UpPTBYGhV/U/zDeG4KoCVbKGjxxhT1fqvW3om8uj/zTSo7pUwtRGHjEZUPuc/m4IfvQ0ApV3s3X25FYgABZKhh5aFaCip5JbcOQaFB2Z8sGAWsuj/WYYqI7lwYJ+NQQ2oLa5fOzXQaB6otxmhtCzohUmK/oiySJQ+6Cre9V+HDH/4uXSoezS8EV2pz4uAqpTJ4TRUjanMKCeKsQi80VA9XGLoXAmXJa6BNSB5Z7aw5cBlXF16HYpUONI5ocvtRlQh5j9xUBkcBBZrACqp8z3ONKcMlAuAVV6VxY0zJvS6NeAWrKo97wcqNKSjQG1x+dvf+fT0dVABZERrAlViXYJlO4db7VT8HRXArN8TiGX3C0dyi4Nv4SWb4ddBdRKngbUb8upl/4gULFPtrdvz4No2OP4yAaKoFBKWRtQewItv68FKl+ywVKc7UwqOXvs8yBQIaj2RockWGF9UupRRa1uUXgHZp6eAbXgUPdxPVCRNDW+mNZwOfBsQ5jUmvKP+T386Db1GL0RVkiu3AE3NDpT4uYUTvs0CNTg/r0pjCCwSrWv70yqtbo5n9yQM8vT56EKO4+uPi0dyi4Nr2Z8wodtQCXZtYAa6oYK5FTo32ejsR8Gm9BpbImbyJv6bhiovrI2WrwWs9w3QUhh+Cuf3pA2Q9RAxVbCpX9Lgbc0/FJ6vhm+BdTRBs83qFqPysCcNapFqdCbdr5jI00riN8Ig7O0BS2tuhfJoPX/Im78PvfNMFBpqcSvmeY7kuBq3m3tE4c1aAGltbnAGAIrXMIH0PnD2gKwXZ3w2mUcVMeWwrZgBea/X59nWP9trv1S1KXhKd4kVwmokJffXfZoeAPnBUAD2a7g1JB7owI8Lg6NwwP5S9/FhrO/tCaPekB7vtkVFkXiAXEu9C1xOZmT34tA/ce//vnBL/vDHtwARAJSdAGPfbpCz4ZNEXRYm19rPAc3786l/PPTdFUPwYRw3R1RvADRfEzthl50F780PM9rovscqIHPYZ90lMkrb3hF8mH2RPzAXjqeAZTs93w2GgOFnpK+4tnLa0tcRvNFbkWgXoR2I3OAAzlQByJYkCk5YECdUiz7EWVA3Y+XZ6YkAlUc+p5JpeW9mgMG1NWsmyriLlsIpyqREZNxwICaseMWD5u2EN6CAzcshAH1fkL9gVDxo/EwPdvV88X4YHw4qw7QwXHkbz3q/Rpf1/DesFh/rkiiKRbqUf8cN25YYLTA9nd9DnBMWo96fXlWJTCgViy55AsD6iXFNk60AXWcVzOHNKDOLJ0daDOg7sDECZIwoE4ghG+SYED9JnePS9uAehyvT8nJgHoK23fPVASqboB79/wtwS9zwID6ZQYflLwIVM2lxUE0WTY7csCAuiMzT0xKBGqPHpxHxUHeZ/AMTeFx4Fc+s4izgzizSiEnuI6cr4Q1vuBZ+/X6nYv+QRZWQEW546+fSAqb4vlY6TkPI6eZh/FxXchIS5menE72dkvcLKH5H0Sgim4XXVm8vRp/ij8w1jl1gjt3nMDPrQA4a/rRV41sseFoFvlD720bQL6oOKD+8/nBIWiyPgAHVdy6wNHEr8ivBOr7F40szJl4Sxn1IX6WyfudnHYh/AMeEXxjTA1YzhtYZxAOmCOdF7PQwNMJ9KR0UJeUdBhpuKWyrIlbJDX9I/dZHDc88Je8BM52jlhRydxKDlSK2zNiRuG+eoVliGApwAtWptXTgPIUPnWcZYmGSZmvEr8+8RKolJKXyUCD5SJ4Uymi6Mmsi/iRcgtXF1bmezTl0mw5ivTC45a4corzveWdZwQq72YTyQ1hIZCzfaT0mk5AyreUweAdXDMOBlWC9YyVveHiUcyDbPvIlU3J7tTXfaD+fGTjcpxsP5ISMRRsXg0ZSkNYzXZSALzMd06LcL8lrpDc7K/aQG0BMZQMrbTI6B2BCpCJeSzgbhuoqJS6IS5qvbfSsIDcTUFbQH3+UsOjyC3mHEYY8ZndLAWqxrgtYNsSlxVl5luu4B0A6o9uQBmlLA0jU8l3A2qnV6f8OtcmUGF1UOw6QqKhYmr1rZP14Z/bQKWRUG8IbEA9XHBFhnzJtA3UaDW9PYQVFbsDQHXKCTIPKVg0/EDTHBRTcLFAWsSiPEOPTaD2UrgbUB1Wg3JJHUkYUHvV4tvf+XS0A1SyiO61hQDL8F8TqMH8p9P0Yf75CtrWXJkDrSHs+EIR9Hgkk5+tzk+jbxNQm2XRcjzvfbdHdaQBiC1FmQH1PAn6nBcBNfmXCUJ9auumRbHUyi1Zw0dcWDX3DUIOxAOGvgXp5aMDudrzlKHPfx4DKh8CSyMmA+rZklwIVJBLrgE8WH/KZQypRApQUel1bWFQdGSTwbOB6vPXaZYKf+67YaCCTCcnrJeWyjQD6rlS/ETzSKCjO/TlxLrNDHEjABbCG0NhEah90NW9aj8Op1G7Xzv0XRtPo+OI94uAGl2GlEpDA+oRsmrlsaJH5clBgKFnxdxRA6sE1IHlHmrhU6d6JlD3yZtz74j7pUDlrhYT3w2oR8iqlYcIVG5IqRWZvvmeRppThhASUKV3lCBdKw3rPmBZ0zOid1cbIqJ3wutyoPL5Km3sMKCeLVoRqGSacAlxEaypGU7RJVC6d72F9hKY5XPKYsndUqAi/NX2+BI/VgHVYTUs2Th5GlCJn2ddRaDWxGCfrLinjgX1IKp8VyKEBNTQW7Z7qRKY5TPLfsHtIqA62qlnWZDJJEHXApVr+LEU5/Y+S2UakmOIiLBaPRpquCUCqH71Gn0l7kVeDwIVgpLU9ryUCIPhr1CpJaDSBgpNcEjaVQKe3tFA1ZaPeLnnvl8PVJSLGl9Frq7oIUxLjsQi+NFt6jEGwVbugFsC8jIu0Tb5VQQqd0hD9DsNbFMYQWCVap9avBrotVaXcvNX1/Nlefo8VGHn0dWnsR7VN05Z9jzFiwh8G1BJdi2g0kYY3qByRqX732ddB+LXYbAJncaWuJGAuW+447bm8oyv3I0Wr8Us900QUhg2yac3pN6sBiq2Ei79GwEqKpXeIIC2fsVcStc3wreAqpcvp8Q3qI3yBtnLcgxpoTdVW73UILSCpDX8gpZW3YtFofX/Im78fp2bJlBpqeTnJx0epqLB1bzb2icOa2hIrGhNCaxwCR9A5w93C8B28vTaZRxUx5bCtmCJQnbFpvuw/qut/VKj5A6Nc+/Z4d4dul6cMaPhwFsJqJBXPDg+tBUUDWS7ghPPvFEBXkAcGocH8nITBQuDs760Jo96QHu+2RUWReIBcc77LXEZCVe67QA1nSohIEUX8NinK/Rs2BRBh7X5tcZzcPPugPCMVgRE5rkD3BB8vhdYDMtfRvMxaZ8w0eRdzYfAjXAUHte6DDyzee5zoAY+hwP0sTzBakOTapg9aQaATsFbj4j1AvIEr9TGQKGnpK949ultidsryHzfh4e+85FuFI1wIAfqSAwLMyMHRGUSfzkj0UbTOAcMqOO8mjkkx2R76DtzKYw2lQMGVJU1l/pgQL2UuJYTa0BdzrMZYxhQZ5TKjjQZUHdk5olJZUCFUPGjl/RsV88X44Px4aw6wDFpc9QTW8xvZY2KZX/X5wABFSWJQJW2EF6/qH+zBAbUe8hdBOo9imalAAcMqPeoBwbUe8hRLYUBVWXNpT6IQF1zcPxSpf5DxBpQ7yFs0QD3UlMs92DFPUthQL2HXMddWtyjvH+uFAbU+4k8an35ePh+xfxbJTKg3kPeC9wu3qPAf60UBtR7SJz7LB7uUXEeFQd5n8EzNLECB37lM4s4O4gzqxRyguvI+crP+5PO1MpnbicoSZOECqgod/w1o7qPKWyK52Ol5zyMnGYexscNGTB6eJpyOtnbWA4eD/dZqFs88FHuAFC9vRp/ij8wxzl18geEH4UVAGdNPxroli02HM1Ff+i9bQPI0QTLE8GFvXdc5c1nNs2JHF2YgfxKoL5//eHuaOGhVanf7+S0CxYYAj8QBXyE465odQEG2EPDXSWJdHhYnk6gJ6WDugQrD/2D6lSWNXEHWDdVkEVA1Q2ckbkV2VxHz4jZIRyBZYhgKcALVqbV0yLZayIjXg27UYcUZFkmJVAptpfJQIPlInhTKdwCCqUTTfSIH2Mof+NMwMh8j6ZcVpjO2BK3oHDaxwVAbQgLxXO2j5Re0wlI+baYNXDNuDhSFsELVq4wviiaLaZg22ekUmY5nvfQB+rPp2mUzJEuWP6jIgWbV0OG0twoRbGdNGSgjDItrlviFknN+jgO1BYQQ+nQSot1eEegAmRiHgs43Aaqn09XwzdWxn7FXkDMl4O2gPr8TUbF2jwFUJWGbSlQtYy2gG1L3C/zf6/kFwJVsSRI1Gi2bncDaqdXJzo61zZQ25HRGA31Hu1kDvvaBiqNhHpDYAPqYQJTMhKBylXBKR61vu0hrNgTDQDVKSfIPKSktoOmOSim4GKBtIiJvvG79UC9jj1f4kYXqA6rwc+MatLTgEr8POsqApUvrnLCkgICw08Rkjx4um8C1StuvKYP88/X5wlAFuZAoTWEHV8ogmAqlBRDK3QPn3VAbczTUkmnuxsBKvczI48WDKhnC1YEqk4UBIZhkv9hqWIIripQZe2WhHyAAAAgAElEQVSqt4iOPMre+6Shr7MljOWHwfLqDDz8yxhQ+RC45DlINqAeLrgiQxGofANwEd4JDe4eCKxlz1eHJ3cFdQVAzya34EglDLUz5cPBQKX1P9Y41Y2HWOJpXg4D1bE8WNCvhsAG1LMFyg/KxA0P/EiNRqDbzEBuCJybi0bfKvaofdD5oTYHeD+ORi9/v2roC9BSA1VVZJ76XPeLgBpdhpQKMwPq2VLlR08jUHk32yawGAprE0YJqAPLPbSYnjrVE4EaGOFBrixDtZl1ytelQI0jmR9eRgPqKcJTMl0BVJ8SVV51WCgBVXpXEhbW6GYCKlVkfcheFuLc5+VA5fNVWjs1oJ4rxTz31UBFMhGsCVUpdQmU7h1vtVPwdFf2oOVzCrnkbtXQN2bgRxG3BmolTwNqFP9JN9zgYAOo2Cfb27fnQTTscXxoR0sJzPJ5Hde2AdXv+b07UPmSDZbibGfSurq2Vyw+HW0AFYLiSh0pe9/TDANV1OoW6Tow0/AL32YA6ggvinKc+Lhq6Bvppca3tXMphOk25F77rzZwQyOsQFi5A25L3FjWuW8GgRpOjjSFEQQmaUSloW/UMOoNgOv5sjx9HqqwB3m9qUdF4yGVcTDvo4NtA6oHl1+K4w1mXgqvnde/U2hozTV9Y604pFjlVWgoh4EqxC2Tn/R5GKi+cjfmlC1mKUD1J2600xvSZogaqNhKuPSvD1QtzesJugXU0QavC8Qg++ZhBXilzxrdQmqt+hOD0hJZ0ShsiRvTnvtmGKjU4kGz+yw8VMPVvNvaJzaXqNxhJ5P0PcxVf+ASPoDOH+6WW19aW4Una2wpbMleZP37Fd3QPyV6aEgeygma0Bi4g8+P63gap7JLQIW84sHxoa2gaCALcFAG4UoNuTcqwD+Cd/AQrxxvQ1Ds/KI1edQD2vPNrrAoEg+Ic6FvicvJnPx+AVBfH6rYBKToAh4n8oWeLZkxSXtzsUe3xocHwhOu5LGPt2gIMh667Xw+3FAdo8jRfExOi6OnSMjR7WhBPj4v3b09ZTDnNQdq4HM4QE/7pZv8pmKhwaJ77ep4TDwLV8i74G+KrtBT0lc8+/S2xE0UXOVuHKhXKZHRmXEgB2r2yR4uxAERqP/41z8/+Nnf9TlgQL2+DFECEaj3KJqVAhwwoN6jHhhQ7yFHtRQGVJU1l/ogAtWGvpeSYZNYA2qTPZf5mG0hhFDxI/TSs109X4wPxoez6gC1KMi/sYWQgtn1ahyAYO3vXhwwoN5Lnq40BtR7CHXjwfF7MOHOpTCg3kO6oikWmqPeo4h/uxQG1HvIn2PShr73kGlWCgNqxo7LPhhQLyu6McINqGN8mj2UAXV2CW2kz4C6kYGTRDegTiKIb5FhQP0WZ49N14B6LL8Pz82AejjLv5KhCNSeAW6cR8VB3mfwDE2U4cCvfGYRZwdxZpVCTnAdOV8pkKmXUQg8wasKqOEgvHey1SeQnHHxq4+VHHXxb8KxZBc8D+Pjhg/R4Vcepk/bJysLp2cg7sWCiEDVXVp4UyT+FH9gjHPqBHfuOIGfWwFw1vSjOwjZYsPR/PKH3lvGuhoUwTJCy1JBI+pZn0qgvn/RyJJLko5MYNmCnHbBAsMjWfcAH53VC7LMAOddoeGu2mOykEFheTqBnmi94Qd1CVYe+gfVqSxr4p4lj7X5ikDVEnNmULgZjBiQzK3kQKXPZD6ltuxAIQ64wjJEsBTgBSvTqlMSzIVcHKhUPi+T0QbLl10UPZl1ET9SbuHqwsp8j6ZcVlSSLXELCqd9FIEqu11sCAvFc7aPlBbaCUj5tpg1cM24OFIWoW/cLAvuHq7odwaElz0qlSwBVTMuRyFxbRh1CzavhgyltSw4BsCP4J1T5u63xK0Sm/MF91kcNzzwl5HsFhBDIAhfZPSOQAXIxDwiof2bxUANFQxGuq4+9CXueFklo2JtngKock9IliSHgapltAVsW+ISQya/8s4zApV3s5H+kZazNIxMkXcDaqdXp/w612VATb2Ji3ejoa/DTJCraDg98tGAGlkxwU0bqMyMZmsaUSkSULABoDrlBJmHlFSH0DQHxRRcLJCGcA3flgAVYcke7S2Byv3MqI2QAXVNPdszDlfwdoAarOU7zR2GnyIkZdqaQPWGtr2mD/PP1+cJQGKoxbKAhhF2fKEIciZFg2Ko1WjIxJBDK2Uol0UCbSncXYHK/czIQ1gDalYtTnjgS6ZdoHKBwoAzehqGJZ18FaiSNXwkA4vo0EiWCqhjh75QIPEp1X2BSspAiedeHjZH1av3EV/4dHQAqAQiWoerez6RaAWoblipdolB0cGRcqSTKMEFw62BCsE5OUGmpVV761HFen3gyxVA9dS5zQy0gO3cPzT6VhGo/d6x7lX7cUZ45wBXbM7I48k9/e2BGh13/XzyIbABNa8fxz+tBqonFQLEcMn/cuGywkhAHVjuoRY+darHAFXr6f8CUMm1JWSa+G5AZbX5lNuNQA1wxfpiUDKJI1kJqNK7kgVh6SBVmAOAijyroR8rp/KtJH2W59aGh8TXgtpqycaAWnDo8MddgAqq/XBS2eUigdK94622VPYSmOWzFKf/ztOatLkphh8hcK0ybTt0Vzd6eMStiLrzo5Ti2XergFrJ04B6thxFoHJDSp5A7JPt7dvzIBIXziWghlZbHS67jEtgls/r2KcDFR4AsUQk/9xmdrhepO+Nafk6yvaPtRaoXMOPpTjT+u4vmyUpikDlpgl9YhBUuVRSZuN7o2Gg0gaKVgPgwMx7vu8DtSwVf/4bc1ReYmp8oYPgchDCtORIwaFJF+dGSeM8kgx0F1m4odFZIKKMS7RNfhWBKtHsNLAZd8pQQajSHE7qUaOGUW8AHDCyPH0eqrBLkpTnVo+qRHGv/x5QE4B0oNJGGA3IiaNYl9ZwWisOU7z8Tug0hoEqxM0Tn/ZpGKi+cjfmlC1mKUClDd2yS3lpiaQGKrYSLv0zoHpwjTZ4fpmsAcQge1mOQTrCunQmt1b9iQGxEQaKy4KWLXFj2nPfiEDlDmki+SQMt2aa70iCq3m3tU9sLmlIXK7NhZRJwwiX8AF0/nC33PrS2ioOqmNLYdbhRmIbN+9XdENPHtQbobNPd+lRIa+opef7NLPS8gc0kAU4+GemfPJGBfhHWPeA9/FyEwULg7PCtCaPekA6AHaFRZF4QJwLfUtcRsLst9xxW3tnEvbgBiASkB4Pcv+eQMYLjE0RmdZU3Z8b3Ly79J6fpqt6CCaEG6pjRFA0HwOA579R7a0rzytvpCj5Wa+5MinwuSh/k99UsBHTNY7HoU7EugHlmzbqUegp6SuefXpb4lKhrnltA/WaZfrzVOdA/fPsuAUDDKi3EGNeCANqzo+rPo0Pfa9awj9OtwH1HhVAVCbxl/co5t8thQH1HrLnmLSh7z1kmpXCgJqx47IPGVAhVPzoJT3b1fPF+GB8OKsOcExaj3rZ9lYnHBXL/q7PAQIqSmJAvb48qxIYUCuWXPKFAfWSYhsn2oA6zquZQ4pAFbcQzlwKo03lgAFVZc2lPohAvVQJjNgmBwyoTfZc5qMB9TKiWkeoAXUd32aLJQK1Pjg+G9lGzygHDKijnJo7nGiAuzbFMnchjDqdAwZUnTdX+rLIpcWVCma0eg4YUO9XE4bXUXEeFQd5n8EzNLECB37lk4c4O4gzqxRyguvI+UqQKbmfZ2dzJyhJk4QKqFl5mlHdR3LGxa8+VnLUxb9pBjfyMD5uyCA6/MrD9GkTZePKNxD3YkHG3S56rjojZ/4UfxCUc+oEj2c4gZ9bAXDW9KOBbtliw9H88ofeW8a6OEXM8gBZIGjZL+ZRJ7kvgQori86a4kg53u/ktAvhH494qB98hOOuaHXB+SKCdYZ33VgjHR6WpxPoSemgLinpFDylsqyJWyQ1/SP3WdztUXUDZ2RuJQcqlZ7Mp4iWWijQt6+wDBEsBXjByrRyMsj0Sm0aZKahAae4vi+BSiG8TJY1WNwCCqVDRsma9pIosDMBI/OdbHKN2nGiJHHdEpenM/O9qPXlLxPxvncRheW59XlU3tdCbCegvXpU2NxNVK2584KVK0xKzzc+anlTwKnv+kBVjKZnpWpY7xuyzxwSQ1jNdlKw47SK31viZuWc94Fjst2jOoG0wYZWWmT0jkAFyMQ8FvB4CKitSrUgr7ODtoD6/E1D+zZPAVSlYVsKVC2jLWDbEvdsAQ3mvxCoiiVBykwzbrwbUDu9OtHRuY4AFY3OsP/XTn5nfm4D1Y0bwzxTAaIj3oB6pgyR9zhQybK9NrwNJRFnbwNAdcoJMg8pqQ6haQ6KKbhYIA3hGgb2gZp6GmdWE8qPqVTW46XuApXN8Wq/qJSPAZU4cdZ1AVDJIjoUEAsrbhOowfyn0/Rh/vn6PAFIDLUY6qE1hB1fKIK4E6c1CqouUGGnGOYuM02v5OD3LLGN5zsCVO5nRlbmGFDHOf6dkCJQuSo4zxYCA1D9b3hoqAJVsoaPHGER3TcIORCPG/qmcpdLCw1D0inSNHdjQOVDYEkPYUA9W6AiUPniak0guRUIgC16vjo8+S+pKwB6NrkFRyph+JkpH84AKpUoNVI6zRR2nuswUB3LgwX9SjNrQD1boiJQR4hymxni0BAL4WycWiYg9qh90NW9aj9OmbX03B36SpHcuwDWqiKrEU7/sAio0XFXqTQ0oJ4tSBGofANwm8DUy2A4rPY0ElAHlntoMT11qmcDVR8dtPl03telQI0jmR++1GZAPU+CPmd+UCauo/IjNSME+h5KmlOG2BJQpXdlZmGNbiqghiF5oqkkeq7n5UDl81VasjGgni1VfvQ0ApV3s6MERrBKNVgCpXvHW20pp7IHLZ+lOP1364e+SHsfGvpU7hNiFVD5ko2TpwF1H2nsk0oDqNgn29u35ytw5bsStElAHdrRUoKifF5X8O1ArRVj6yj5fqy1QOVLNlhDtp1J35fVaA4NoEJQvcqJMBj+0nCJZSsBVdTqsji4dWDm6U0AVNB0Y2VSLgFqfBW5usAhTLch9w12W4/RG2EF6sodcEOjMyVuXuBpn7jBwQZQw2aHpjCCwKRKLAKVNlDoDYDr+bI8fR6qsAfZvKVHRdyt+Q+SuUuw9T1qyD6AQGyAY5AWkFMx4C1cXRwYBpvQaWyJm8ib+o5PR5tA9ZW70eK1mOW+CUIKw1/5iJS0GaIGKrYSLv3rAlVL0zlRvs+Gh9EGxy+T8ZFNwfEge1mOISx2e2WNrpxGK4jfCPOoR22tuhezofX/Rjli2PluhoFKSyVu+2DhdRuu5t3WPrG5pCGxsnxDYIVL+AAQf7hbALYbPXntMg6qY0thW7ACw9+v6IZeXPslesJWRXi3RmPgDj5LowUhi5leST0q5OV3lz0a3sB5KdBAtis4NeTeqACPC97BC3mjgUMDSGvyqAe055tdYVEkbunkQt8Sl5M5+f0CoL7ipgYCktsPiz2x2Kcr9ELYFEGHtfm1xrMHwtO5k39GKwIi71yvBsHne4HFsPxlNB8DgOe/0nW9a3jItX2jfDz5We9zoAY+F+V/Fg2vWJYR0zWOx5AN+z2fjcZAoaekr3j28toSVyzh1C/HgTp1MYw4jQM5ULVQ9n52DhhQZ5fQRvoMqBsZOEl0A+okgvgWGQbUb3H22HRFoP7jX//84Gd/1+eAAfX6MkQJRKDeo2hWCnDAgHqPepABFULlgqVnu3q+GB+MD2fVAQIq8o8bHmzoe49W2HrU+8hxeAvhfYr8t0qCFtj+7sWB2KNSN3uv4v3N0hhQ7yd3A+r9ZJrpHG5YvD9TpN0Ojv8Zjl2soNajXkxgCrmiKRYb+ircuuBrA+oFhSaQzDFpQ1+BQVd/ZUC9ugQ9/QbUe8hRLYUBVWXNpT4YUC8lruXEGlCX82zGGKuAivOoOMj7DJ6hqWA48CvbW8DZQZxZpZATXEfOV1Zkvj90xrZ5ELqKd96LCqgod/z16UphUzwfKz3nYeQ08zA+rgsZaSnTk9PJ3m6JmyU0/8NCoHp7NXRQ3DHfOXXC4XGcwM+tADhr+tFXjWyx4WgW+UPvYzZ+Em1kxgMeAbTGKIWe6a4E6vsXjSzMmXhLGfUhfkY9LFuQ0y6Eh1e7UH7w0Vm9IMsMsIgRGu6qPSYLGRSWpxPoidYbfoIhAljWYKRIt1SWNXGl9GZ+JwJVM8DtbOdwMxixZGRuJQcqfa5dU9CXA6+wDBEsBXjByrRWFAXTLMMOsaoEzn1RApWo8TIZbbC8qRRR9GTWRfxIuYWrCyvzPZpyabYcRXrhcUtcOcX53opAlV1aNISFcrkKrfSaTkDKt8U8gWvGxZGyCF3jZhSagZReXe3aB+rPp2mUzBVYsPxHjCAejQAMYTXbSQHwI3inrON1S9yYyNw3IlBFkltADBHQSouM3hGoAJmYh0i0/HIMqMHg1tbMZBIOe9sC6vM3GRVrFxNAlXtC30ArhuvKUqIOaRltAduWuCWNkz6LQBXdLo60nKVhZCr0bkDt9OqUX+c6AtQphuudcox8bgOVRkK9IbABdYTX3wzDfRbHDQ/8ZcqcWt/2EFZUAAwA1SknyDykYNHwA01zUEzBxQJpERN943ddoIZGqT8kHM/zrJBdoHI/M9qw9GNAPUt+lC/vPCNQeTdLAXFNCggMP0VI8uDpvglUb2jbawwx/3x9ngBkYQ4UGkbY8YUiCKZCSTE0MjVKhPi7HlD99zCMDxrLmN+ScpcZn/A8AlTuZ0Y2ym1APUF0apZdoHKBOn+oz8GlChWokjV80IflEGn54IihLyqlHwq+Xk/fKGAN+BUaELdM0TAmrbL3nA9jQOVDYGnEZEA9R3opV67gHQAqItKaIipz3fOlpNmdAlT0XHILjrhhqJ0pH44AanuIT72tTjcr9wS3w0B1LA8W9KshsAH1bFHyJdNBoHqS3WYGWsD+wUJ4YygsArUPurpX7ccZYWhz6NtVmqUed+Mq0Qipm8MsAiqb3uQNkQF1syA2JsCno4uA6vOlSut711y4jDIJqA4Q0jCrjMeXfI4DataRM5JwS71qK0wR5bTHpUCNI5kfzncD6mkCDBlvBKpPhSouHEiJHasEVOldyY3QuyVAzAHURWuHZZkOfl4OVD5fpbVTA+rBYquy2wWoSDWCNaEqZSaB0r3jrXYKnu5KYJbPKeSSu+bQN8yNpWLEPLrD4xjy9JtVQK3kaUA9W5CDQMU+2d6MzINIdHgrAXWospfALJ/Xsa8NVD+cV4fxyLLq6dfRcUSstUDlGn4sxdnOpCOkpecxCFQIShnWxrR9BR8GqqjVjYn5GwcIGn7h1RFADevFleaT0ebo6vGDhT/xdj1QE7/9SRsuB16g0EB3G3KnqdK1/EMjrJBvuQNuS1xelInvRaByQ0pEu9PANoURBCZVcKlHjRpGvcK7ni/L0+fR7O2I4Ma13aP6CqXOt5EuyiOVs5HnWZ+2AZV44deVtTGV185rQE4l/33qsiZH2Zm4U1R2J3Qaw0AV4rKUZ74VgcpNExLxvnI35pQtZilApSGkvFVP2gxRAxVbCZf+dYHqtsxpp0r8yGFrY7GU5rXhW0AdLUMXiEH2shwD5fBK30Jhq/7EwtMaftEobIkb0577RgSqSDIJw62Z5juSnIdubO0TVb40JFa+h/keeijyWu4Pd8utL62t4qA6thS2ZC+W4/2Kbuiba78YZrutjNwyha8ozQonZnreSwmokFc8OD60JRINZAGOokjUkHujAvwjrHvAA3ljNxfOCtOaPOoB7flmV1gUiQfEudC3xOVkTn6/AKivuKmBgBRdwONkv9CzkdkS2idL1xrPwc27cyn/jFYERN5BMCHcUB2jRKL5mLRPONKjJuTpiuV8tNzcU0ZzXXOgBj6HA/RUfrLa0KQcZk+aAaBk89YjEr+85Y9Xh7+RjpIu5dmnp5RFiUN56LT0CnfudxGo3CHNueRZ7ls5kAN1a2oW/ywOcMdtK3YmnUW25TvKAQPqKKeuE86Aeh1ZDVNqQB1m1WUCGlAvI6pxQg2o47yaOaQNfWeWzg60GVB3YOIESWTKJAgVP3pJz3b1fDE+GB/OqgMckzb0naDl3JsEVCz7uz4HCKgoiQH1+vKsSmBArVhyyRcG1EuKbZxoA+o4r2YOaUCdWTo70GZA3YGJEyRhQJ1ACN8kwYD6Te4el7YIVNtCeJwAvp2TAfXbHD4mfRGox2RtuRzBAQPqEVz+fh4G1O/z+NQcDKinsn+3zEWgSgfHd8vREjqUAwbUQ9n9tcxEA9ySKRZOAc6j4iDvM3iYpm848CufWcTZQX4Am2KceO2cryQnVPr1RNoXZF0BFeWOv35CKWyK52Ol5zyMnGYexsd1ISMtZXpyOtnbLXGzhOZ/WOjSwtuc8af4A2OdUyd/QPhRWAFw1vSDB7amDaID+eQPvbdtAJH9Hm8FIbjuIAsEdG1ZLDiwPL2sSqC+f/3h7mjhQW5ZfbJwkEVOu1DuBzwi+MYYfITjrmh1ARY+QsNdJRkcbcWwPJ1AT/z2g7oEKw/9g+pUljVxe3yb+Xt3Z5Ju4IzMrcjmOsh8Sm3Z4UB2wDJEOP3vBSvTCopAL8ytSL0A3sFIl2x25sDyDGZVApWieZl0GiwK3LL+SGZduHmUGK+4cWFlvkdTLisqyZa4BYXTPi5wu+jt2qjyaJnQdAKSbSAt5wxcMy6PxWM0jZuhHM3e0o8qVtQnTsJh932gakbcOImNMgebV0MNV4u3AfBq/eLklPdb4pZpTfrMfRa3e9QWEEPh0EqLjN4RqACZmMcCBreACsNfTRA6Psi9wgISDgvaAurzNxkVa/MUQFXKvBSoWkZbwLYl7mGS2JaRqPXlL2PyIwIpDSNT5N2A2unVKb/OtQXUTlTvukOrbL3IJ3xvAzVZ/RcNp0d6DaiRFSfdcEy2e1SybK85ggoFqBQJeD8AVKecIPOQgkVDZ+EuKKbgYoHmj2v4th6oqLDKqGENIQfE6QKV+5lRh/wG1ANE1cxiAVCDqwen9cTwU4SknFkTqMH8p9P0Yf4ZPHtjqMWygIYRdnyhCHo8ksnP5jBVpiY4tFKGckoc/xo9+l5z7WZGu30cASr3MyPPNQ2ouwlkZUKLgMoFCvW+04yOZKwCVbKGjwShWYVGsgTFyUNflEPtdUYYcXyYMaDyIXDJcy8Pm6MeLzue40KgeqFheSKuMRY9H0883itAxRBUbsERMyg6svnguUB1yzZruvDIiONvhoHqWB4s6FeNkfWox0suz1EEKlcF58HTk9vMQIv/zs0FG6emYP5OBGofdHWv2o9TZi09r5uj7pO3RM833y0CalhDdqOlrEEyoH5TRiNpi0Dli6vtRCDAtHNH7R0loA4s99AOodSp7gOWVUB1ZVgzr21z8NtflwI1jmR+uNLMgPptOfXSF4Hai1R+9xVfmlOGkBJQpXd1wk55NANQXRkTISWl0z4vByqfr1LDZEA9W8AiUPkG4FECI1ilyiyB0r3jrbaUU9mDls9SnP675T2qHzlIRevndm6IVUDlSzau0AbUc6X4+fCDMnEdlR+p8QRin2xv354HkbhwLgF1ZANFtcf0JKCODNPPlqSS/1qgcg0/luJM66sw+KDX/OhpBCrvZj0dEJSktudU+l5nGKiiVpenR0MwGn7h2zlAdT1wpQktaJ30cT1QE7+9hp/LgRc2NNDdhtxvfGnrMXojrJBvuQNuaHSmxOVFuch9A6hhs0NTGEFgUoWWetSoYdQbgHpe6PNQhT3I6GVDX98Abc1zkLTdg20DqgdXG6i0EUYDcioSlvUyZXL6FHavjQBV6DSGgSrE5TRc5L4JVF+5G4xsMUsB6icMf2WX8tJmiBqo2Eq49G8RUAONzTZqKQEHhm8BdbTx8ctkDSAG2ctyDIX9fboNMmrRW/UnRvJHDKtR25a4Me25b7jBwSZQaakEu4Xo8DAVDSdO3NY+sbmkIfGPvLmBwAqX8AF0/nC33PrS2urDnS1dcZLm/Ypu6J8ivVSqcHWVoFFJi+CzPUpAhbx8L/n4jHngRgPZ5gE15N6oAOcCrHs82kcHcVaY1uRRD2jPN7vCokg8IM5bzS1xOZmT3/PpaAeorw9VbAJSdAGPfbpCz4ZNEXRYm19rfAQ37w8I9Fk1BBkPIZgQju8FzsJID9F8TNonTDS1Kqs7JM4rhpT2xO9yoAY+hwP0VP6y4RWLA7Mn4gf20vEYMmS/57PRGCj0lPQVz15eW+Iymi9yOw7UixTIyMw5kAM1/2ZP1+GAAfU6slpFqQF1Fdumi2RAnU4k+xJkQN2Xn2elZkA9i/MH5WtAPYjRX87GgPplBp+dvAH1bAnsk38GVAgVv3/865/uR8929XwxPhgfzqoDBFTkH5dn9mkDLJUZOADB2t/1OUBARUkMqNeXZ1UCA2rFkku+EIFKQ99LlsiIzjhgQM3YcdmH8S2Ely3i3ybcgHo/+cehL+9m71fMv1UiA+r95G1AvZ9MnRb/hsX6c0UaPDj+5/hymwJbj3oPUYqmWGzoew/hohQG1HvIkmPShr73kGlWCgNqxo7LPqwCKs6j4iDvM3iGptLjwK98ZhFnB3FmlUJOcB05XwmzTaysOAc5UxFGuFgBFeWOv34KKWyK52Ol5zyMnGYexsd1ISMtZXpyOtnbLXGzhOZ/WAhUb3PGn+IPjHVOneDOHSfwcysAzpp+NNAtW2w4mkX+0PuIp21/QN0dqg4VAo6qHpU/nKNLsCy/EqjvXzSy5JKkIxN4VyenXbDA8EjWPcBHzw9mgD003FVjhnQc70JYnk6gJ1pv+EFdgpWHfqNIZVkTdxkXzw+9CKjODIpo7YDMreRApeKR+ZTasgOFOOAKyxDBUoAXrEyrp6RhBOtipllKoBKnvUxGGizE8KZSRNGTWRfxI+UWrg3eRVMuKyrJlrgFhdM+LgBqQ1goXsv2rRNQp/UeZhFcMw4HFgN2jZuBXrXi+fhSTsYAABOgSURBVEZJ/SzmeN7LPlB/GmUluhsNV7B5NWQoDWElK5XIJgB+FV+3xKUiTn4VgVob4O4AMRQSrbTI6B2BCpCJeSxgdA+o7ruayX2A+vxNRsXU4jq+oszKCGQpULWMtoBtS9wF9ebMoCJQRZcWIwIpDSNTyXYDaqdXp/w61yGgFvPtlCRo2Gt0kFL91l2rR3WYCXKtTHBmBBlQM3ac8CACVaaDWt92Ja0UCUhsAKhOOUHmIQWLhh9oX4NiCi4WSIso09p+2wMq2RsWh3MoizZ8a2d7ytcuUN1gKSiX1HIZUE8RHstUBKrmdjEpIDD8FCHJkma3TaAG859O04f55+vzBCALB8nQGj6fD28/GCZFg2Johe7h0wXqxw9vKz+hrvdpN1Ss1FPcjgCV+5kRGyfHDxv6nilQ7rM4bnjgL3PiUgV2lfiprZvmsfQeVbKGj7iwiA6NZAmKY4a+nnrQ5pcT/HLB09kcXtI+FVw45XEMqKSDkHju5WFz1FPEFzPlnWcEKu9mY8h4Q24FfCUue74YjN8oPSp6NrkFR+Qw1M6UD0cCNdAQ14GhKFswiuDlP/F+GKiuuMGCfjUEtqHviSKssh4Eqo/nNjOQGwLn5qJRiUWg9kFX96r9OFWphBf9oS9FQgV9uCG3dwGhuOWg4BNeFwHVqRPCKCKbUxhQzxYtV/AuAqonvBgKZ8JlRZOAOjLfc/H4ks+RQC2G5VE7ei2wLgVqHMn8cL4bUFltPuWWL5muAGqA66uzJU0CqvSuZEEARxr9HgVU3wClfIkwapjKuTN9n++6HKh8vkoKJAPq2ZLl09HVQEUh/HBS2eUigbLqLSVWlMAsn6U4/XfdoS9oq+ZplK6nQd+5ROHmuK4CaiVPA+rZ0hwEKvbJ9vbthQosbRSQgBp6S12ZBNaUwCyf17GvB1T3vVFeN3dWgbyOpm/FWgtUvmQDJZppfb8lobF0B4EKQfWGewgDRQQNlxgBElBFrS6Lg1sHZp7eMUB1QGwA1S033R6oEAA1vopcnbhCmBa/SKzwo9vUY/B5MUUSruUOuKHRWUinjCskP+OrQaAG9+9NYQSBSRVYBGpIs1orTWyqezafhyrsFLV5N9SjSuWgVFGeJi8o4PnX9T1qoD2AQGyAY5AWkBMP4GtWw+n4pnyh0xgGqhA3kTf13TBQfeVutHgtZrlvgpBIkypW+kLr6thYAxVbCZf+9YBKWwhFstwSxvaDAUtpXhu+BdTRBs8vk/GRTUENgVljGIKjN+18xxJYK4jfCAPFZUFLq+5FUmn9v4gbv899IwKVG1KK5JMw3JppviMJruZxxlMWPA2Jle8EVriED6Dzh7sFYDt5o/X2B9WxpbAt2Eh9unm/oht68qCePqY7D+ZH4S07HIBenGlK9+g7CaiQl18XLsunUYcGsl3BqSH3RgV4OuAZPJC/dOsYOCtMa/KoB7Tnm11hUSQeEOf83xKXkzn5vQhUbpow0o89uGHcQkCKLuCxT1fo2bApgvbk8ms9/PEAeDqX8s9P01U9BBPCLdooFE2qpH3CRJN3NR9Lmm5cHObm/tFyc5+izXSXAzXwOeyTpvI3+U2FgZULuteuFb98g6ryF1tF3R7uWiaRtpLWJ8lgS1ytAPO+F4E6L7lG2VIO5EBdGtvCz8IBA+oskvgSHQbULzH24GRFoHKHNAfTY9ntzAED6s4MPSk57rht086kk+i3bDscMKB2GHTBzwbUCwqtR7IBtceh633/gVDxo/EwPdvV88X4YHw4qw7Q0Bf5W496vca1SzEEa3/X5wB1niiJAfX68qxKYECtWHLJFwbUS4ptnGgD6jivZg5pQJ1ZOjvQZkDdgYkTJGFAnUAI3yTBgPpN7h6XtgH1OF6fkpMB9RS2756pAXV3ls6VoAF1LnmspUYEqm0hXMvO+eIZUOeTyRqKRKCuScjizMkBA+qccllK1Sqg4jwqDvI+g2doyhQHfuUzizg7iDOrFHKC68j5ys/7gzO1rqyz0T/IwgqowXu6d7LVT4SccfGrj5UcdfFvwrFkFzwP4+OGD9HhVx6mT9snKwunZyDuxYKIQBUPjnuuOiNn/hR/YIxz6uQPCD8KKwDOmn50CSFbbDiaX/7Q+4CNH1ie4I6q0Dg9ftrmRI4uzEB+JVDfv2hkO3aYKd33OzntggUGeA14+cYYfMSh72h1ARY+QsNdtcdIh4fl6QR6UjqoS7Dy0D+oTmVZE5eKeJWraIBbNMVCZlC4GYxYSjK3IpvrqF1TxIjH3cAyRLAW4AUr0+oJgmkQqWHx5ZRNzhxXlCU5lUCluF4mAw2Wi+BNpYiiJ7Mu4kfKLVxdWJnv0ZRLbf6jSKR+3BK3Tm3ONwtcWjSEhbI520dS5faGrWrPbGsZAteMa+P6eF6wcoXxRXnoVgZdZVPKuY2sr8TuA1Uxmp5R07DeF2xeDTVebpSi2E4KgB/Be0YaHrbErRKb/0V7r28LiKFsaKVFRu9YuQEyMY8F/G0D1TdIesXrfV9AyAFBW0B9/vqyjFj/MwPcBwirkcW428WRllMzbrwbUDu9eqOg/FMTqKGcemMQhvktq3o8s5Pv20ClkVBvCIwyKyOQkXpBPEBYjbFbesUtcYm2ya/cZ3G7R41W09vDvkqRAAYMANUpJ8g8pKQ6DMoc3/onDd8a/jaBOiD0rp3bNUR9KU4XqNzPjNr4GFC/JJ7hZEWtL3/JU0oKCAw/RUjy4Om+CdRg/tNp+jD/fHlP31zjCqw7s5IPbz/4kcxLrtA9BIdWSg8xAFQP9HaDlQp/7t0IULmfGXnIb0A9V4qfaMwBdHR6VAQJw75gLBnDmCG4qkCVrOH7fHyjUILhuKGvXGG9uO4HVD4ELnlOclcaNhv6+krx5f+88xwAqhcafIh4S+tYW3v2NzIoQEWF1wERFB3ZnOYAoNIQXx0GkotJqUJ/WVorkh/rUUPCYTRRu5y0HnUF63eNsgKoPn+3mYHcEDg3F42+VQRqH3R1r9qPM8Kd5hyVzdnkRoRGFUoPM0LAgWEWAdWpE6BYKt2PGFAPFJmY1Wqg+tSo0krCZflJQHVDpk6vFFr41KkeA1Q+xH9gJw5tVYNW+0lzaGU9kBV7htulQOWuFhPfDahny1IEKlcFjxDoeyiAVQGeBFTpXZlZmP+kCnMUUD0hme+cuNfX0yD3tmUBzn9eDlQ+X6VRgwH1bEmKQOWLq6MERrAmVKWoEiir3jIFT3clMMvnFHLJXW/o20rLx1UapFbEk76tAiob/ns/sAbUk8QXsxWBGr/GG+yT7e3b8yCqfFciDQmoQ9rCEpjlcyRw0c16oIYydnmxiJyvBl4LVD78x1KcbXj4qpi6iYtA5RuAfQoQVK8XQRhlh4sEVNKutiq9AzMNv0DJuUCtlVtd/p4eYD1QE7+9hp/LgRdrQeMFP7rawvfQCCvkW+6A2xKXF2Xie35QJi7P8CM1RLurpC1QEfCkZQ0RqOhoG/NaGn5lefpKoQqbiO1c1/SoPo6yl7mT35mftwGVRkNKAxwK5uWoATmVHst6Gk7HN9YLncYwUIW4ibyp7/jR0whU3s0S9d2K2mKWAlR/4kY7vSFthqiBCo3s0r+lQCUP3VsbiKV07hG+BdTR8nSBGGTv57MK1ehNs0a3CNeqPzHo++PX8ItGYUvcmPZ1bppApRYPml06PExFQ0XGGU9Z8DQkVr6HuSoW2clruT/cLbe+1As/3NnSFSdp3q/ohp48qFM5qmvwoI1NHWpPUEWa64UEVGp4nJZ+aCsoGsgCHEUxqSH3RgX4Rxwah9f2xnIWzgrTmjzqAe35ZldY2YgHxDngt8TlZF7ovgPU14cqNgHp8YAAwol8oWfLljeYi/e60gc37y69Z9UQZDyEYEK4oTpGkaP5mLRPmA6Sl67r32+YX0HZyA09JXK9aw7UwGcmC8eDYLWhWboR0zWhYYv1wtWNFg8Vekr6imcvry1xmyWd8iM3ONgG6pTkG1E9DuRA7YW277NygE9HDaizSmkDXQbUDcybKKoBdSJhfIMUA+o3uHp8mgbU43l+aI4G1EPZ/bXMDKhfY+0cCRtQ55DDVioyoEKo+NFLerar54vxwfhwVh3gmDRl0tZmb8L4qFj2d30OEFBRkgjUf/zrnx/87O/6HDCgXl+GKIEI1HsUzUoBDhhQ71EPDKj3kKNaCgOqyppLfRCBakPfS8mwSawBtcmey3y0LYSXEdU6Qg2o6/g2c6yoTOLd7MwEG219DhhQ+zy6WggD6tUkNkCvAXWASRcIMnxw/AJlMRIFDhhQBaZc8JVoiqU39MV5VBzkhY1beIamPxz4TU/0FlecHcTBcP7unHvnjOr1/Lxev0P0aGU9h/rluVZAJRvF7tpPL9o0ZvF8rOSoKw8jp5mH8XFdSJZuHkZOJ3u7JW6W0PwPHJMDQ19vc8af4g+Cck6dcHgcJ/BzKwDOmr4zeNa2jXQIm9yBc+/ePloKcO7sNeuK3uwHLBO4Bgbu7eHKo2Wp4JCCLMukBOr7F40suSSRrWjEHFBmctoFCwyPZN2DGrycl77hrtpjpPNiFhp4OoGelE4wRPD7Vhr9SN2HyrImbkrlGneLgOrMoHAzGLGMZG4lByp9JvMptWUHCvHtK+grfOQQcBUTMo7mCpShnCIPvl2GdemXQKVUvEzaRssobNP644i9JErIhZXrSDTlsqKSbIlLpM1+XQBUb9dGraPO9pHSQjsBKd8WcwiuGZdFesNloxiHbPUUlSfYcRLjDBnSWkbfN0P3gaoZl+NU+ZGUiKHAK9leFk8jWOCvGr8QZgtft8QtSJz1cRyoLSBGXivmNHcEKlpPEUAqh1HJdMNa1BrzNP27Arwx/Wv1qi2gPn+poVLklpVZ4cdSoHJGx/STWVLtMw9a3RtQGUtGBFIaRqbouwG106tTfvwKq4NiVxAChXKlChKA2AC3HzYqFZfnPcF9G6ihl3MWAFvlAU+U7yP1gviAsInR9NZft4BtS9ycimmfxB5VMsBN8xTVEVQoYqVIwPsBoDrlBJmHFCwafqBpDoopuFggDeH/3961YLkNwsCeqwfoUXzEXm/7BpAs5BGWkzRms+S9XWPMR0gMkkGGpznrgZroeFXjvsqUf7oFwwJOgSobnZfJosjyWEAdMvkNDylQj0daVEr2CQiYnxSSnOQhUNv2n2WpB++fcqxhP/mDWcMNW3hi8uf3vuXnSFlyYlyspy0zOmfSuGruus0A1Z4zw981F1Dvkp/US4EqD4/XZha2zZJhxqTg6sGgBbPd8PEQSyFsSecB01fr4oGiHa2ZmwFhQuvy2t4fmwOqNYGZpbCA+n7J9TVSoI6PXZRjBQAkrK31mq8vvt0FQAVI+AiOfG2io3uneTVQa3mWhpRZ+4lALSzfmky9CbyASvv1GyPtmcXq8GAjI1qKM0PTrPWYi4FupUA9B91Rq57niehl8RWU/STJjwZqmU6oA7AdvKpp3PNJ+Xll0ELabuDVUto8xtnss0lvgxkryKb/hmGrPBWoVs2O2+RM4eiFkQG1CJiZWabGgwBeCdSgLEarIakEr3ROn/fN92nTV+mqfIG1tGNqaVRlzwSBB4Baqa5aiL1Ttlaxzs/iPBMaIPYOE4DL50vcQ1v3WsPSajspKeyjgWrfV0WLLqCSXvDWKDvB+zBQQbGCdUfV3hAGyhJ3AojDwcWvASpoDU2wDAhTtO/NvzN0XaNWant5LqDeKUPUbZdMB0D9+7UxAHbUi8kko7B5yICaAcT/AGqhhdCo5LZ2DNpbO/GJ2a7l3Rt4FKh2yQZLccvh4V452tfRAVAhqLOOiTQwfwkIGFDprK5jRgGzLe9ZjRotB/X11kksW6993tppl3Ts48nCjwMVDZHBN5Braev5wKYswTm6w3mMMwurleQ94K5YOD6vEjd3IAlUTMqdOW83gbEOTIHayvwVDwBFc3WardYRCnvI6zrYdMXZ9FaAAb0lecoSsAXfG34OqOJVNgKqyDEa2Pb24zPBCKdyUHYoHy2GKI00UEleLXfuQBqo8s4SMnLErKjjt07Pj5Rn2u8IVLgSZn7oJDHAUZftaE1rksZWPti0mdrvSzMCasyPnt6xhWHATPilJUGbnjzvZ5o1pwnIGr7j/6jvae4grz6fO5AGqox4dc2090jCUfPFtY8Ol63TB999fglYywfaFXTw+8Wp4qy42mnqh+pwKRzJXlgvgww+fO5Ow273xXHjUFAdFKyrZG0np0vqmu3KgIp2lDbDmkm5goIXDhyuocLjuqmAfYiPxsF370Rh0kDesiaPfiA+3+aKHUX0A3Erq2fyGhJmD14A6v4VigBJOz38dIlmg1NEOXreH+1+UILtmPcCnO1rGx1V30AMf99UH9NtY3b/4BxNEF0dhft2zi7Snr4eqI3PTh5Dfktx2PZEwtG18NoNhts2GAwCejx97r4OLs/kjRowbzwFqt1IaV7SF2UZDvRAzeRYaWbkAAWq3ZpwRqIXTXkOLKDmeTVzSgrUmQletF3jwALqNX7NmnoBdVbJvIiuBdQXMfLmYihQ5UAaeRhd8S4LM1l+yBel9fFIKz+UgbJ8GnaPL3vwJQF+8H+EaxVLx+Lsma8IszQsDnWgLvxQN2hg6Xzc4s+fIZ8Wf67zB33wF0Zf/PkOF90vRl9ndMRLH78GsjFvfyp/gE91IVzmUlGeH/FvyfIjxFgaIbJcQP0cmWpLRLgasQLflgMiy3/ws7x1c24JLwAAAABJRU5ErkJggg==;" vertex="1" parent="daI-n-khhlpTVpHMfqZn-1">
          <mxGeometry x="240" y="190" width="234" height="739" as="geometry" />
        </mxCell>
        <mxCell id="JkaeSoJjeKFLhoHXRz1b-164" value="" style="rounded=0;whiteSpace=wrap;html=1;shadow=0;gradientColor=none;fontSize=14;align=left;fillColor=none;strokeColor=#FF0000;" vertex="1" parent="daI-n-khhlpTVpHMfqZn-1">
          <mxGeometry x="359" y="440" width="110" height="30" as="geometry" />
        </mxCell>
        <mxCell id="JkaeSoJjeKFLhoHXRz1b-165" value="" style="rounded=0;whiteSpace=wrap;html=1;shadow=0;fillColor=#ffffff;gradientColor=none;fontSize=14;align=left;" vertex="1" parent="daI-n-khhlpTVpHMfqZn-1">
          <mxGeometry x="469" y="450" width="21" height="20" as="geometry" />
        </mxCell>
        <mxCell id="JkaeSoJjeKFLhoHXRz1b-166" value="" style="triangle;whiteSpace=wrap;html=1;shadow=0;gradientColor=none;fontSize=14;align=left;rotation=90;strokeColor=#1A1A1A;fillColor=#1A1A1A;" vertex="1" parent="daI-n-khhlpTVpHMfqZn-1">
          <mxGeometry x="474.5" y="455" width="10" height="10" as="geometry" />
        </mxCell>
        <mxCell id="JkaeSoJjeKFLhoHXRz1b-167" value="" style="rounded=0;whiteSpace=wrap;html=1;shadow=0;strokeColor=#1A1A1A;gradientColor=none;fontSize=14;align=left;fillColor=#FFFFFF;" vertex="1" parent="daI-n-khhlpTVpHMfqZn-1">
          <mxGeometry x="469" y="470" width="131" height="70" as="geometry" />
        </mxCell>
        <mxCell id="JkaeSoJjeKFLhoHXRz1b-169" value="" style="verticalLabelPosition=bottom;shadow=0;dashed=0;align=center;html=1;verticalAlign=top;strokeWidth=1;shape=mxgraph.mockup.navigation.scrollBar;strokeColor=#999999;barPos=20;fillColor2=#99ddff;strokeColor2=none;direction=north;fillColor=#FFFFFF;gradientColor=none;fontSize=14;" vertex="1" parent="daI-n-khhlpTVpHMfqZn-1">
          <mxGeometry x="580" y="470" width="20" height="70" as="geometry" />
        </mxCell>
        <mxCell id="JkaeSoJjeKFLhoHXRz1b-170" value="NULL" style="rounded=1;whiteSpace=wrap;html=1;shadow=0;strokeColor=#1A1A1A;fillColor=#FFFFFF;gradientColor=none;fontSize=14;align=left;" vertex="1" parent="daI-n-khhlpTVpHMfqZn-1">
          <mxGeometry x="469" y="470" width="111" height="25" as="geometry" />
        </mxCell>
        <mxCell id="JkaeSoJjeKFLhoHXRz1b-171" value="MPE64" style="rounded=1;whiteSpace=wrap;html=1;shadow=0;strokeColor=#1A1A1A;fillColor=#FFFFFF;gradientColor=none;fontSize=14;align=left;" vertex="1" parent="daI-n-khhlpTVpHMfqZn-1">
          <mxGeometry x="469" y="495" width="111" height="25" as="geometry" />
        </mxCell>
      </root>
    </mxGraphModel>
  </diagram>
  <diagram name="Page-1" id="c9db0220-8083-56f3-ca83-edcdcd058819">
    <mxGraphModel dx="1422" dy="762" grid="1" gridSize="10" guides="1" tooltips="1" connect="1" arrows="1" fold="1" page="1" pageScale="1.5" pageWidth="826" pageHeight="1169" background="#ffffff" math="0" shadow="0">
      <root>
        <mxCell id="0" style=";html=1;" />
        <mxCell id="1" style=";html=1;" parent="0" />
        <mxCell id="3d76a8aef4d5c911-1" value="" style="html=1;shadow=0;dashed=0;shape=mxgraph.bootstrap.rect;fillColor=#222222;strokeColor=none;whiteSpace=wrap;rounded=0;fontSize=12;fontColor=#000000;align=center;" parent="1" vertex="1">
          <mxGeometry x="40" y="70" width="1150" height="40" as="geometry" />
        </mxCell>
        <mxCell id="3d76a8aef4d5c911-2" value="Company" style="html=1;shadow=0;dashed=0;fillColor=none;strokeColor=none;shape=mxgraph.bootstrap.rect;fontColor=#999999;fontSize=14;whiteSpace=wrap;" parent="3d76a8aef4d5c911-1" vertex="1">
          <mxGeometry width="115" height="40" as="geometry" />
        </mxCell>
        <mxCell id="3d76a8aef4d5c911-3" value="People" style="html=1;shadow=0;dashed=0;shape=mxgraph.bootstrap.rect;fillColor=#000000;strokeColor=none;fontColor=#ffffff;spacingRight=30;whiteSpace=wrap;" parent="3d76a8aef4d5c911-1" vertex="1">
          <mxGeometry x="115" width="129.375" height="40" as="geometry" />
        </mxCell>
        <mxCell id="3d76a8aef4d5c911-4" value="84" style="html=1;shadow=0;dashed=0;shape=mxgraph.bootstrap.rrect;rSize=8;fillColor=#ff0000;strokeColor=none;fontColor=#ffffff;whiteSpace=wrap;" parent="3d76a8aef4d5c911-3" vertex="1">
          <mxGeometry x="1" y="0.5" width="25" height="16" relative="1" as="geometry">
            <mxPoint x="-30" y="-8" as="offset" />
          </mxGeometry>
        </mxCell>
        <mxCell id="3d76a8aef4d5c911-5" value="Violations" style="html=1;shadow=0;dashed=0;fillColor=none;strokeColor=none;shape=mxgraph.bootstrap.rect;fontColor=#999999;spacingRight=30;whiteSpace=wrap;" parent="3d76a8aef4d5c911-1" vertex="1">
          <mxGeometry x="244.375" width="158.125" height="40" as="geometry" />
        </mxCell>
        <mxCell id="3d76a8aef4d5c911-6" value="42" style="html=1;shadow=0;dashed=0;shape=mxgraph.bootstrap.rrect;rSize=8;fillColor=#ff0000;strokeColor=none;fontColor=#ffffff;whiteSpace=wrap;" parent="3d76a8aef4d5c911-5" vertex="1">
          <mxGeometry x="1" y="0.5" width="25" height="16" relative="1" as="geometry">
            <mxPoint x="-30" y="-8" as="offset" />
          </mxGeometry>
        </mxCell>
        <mxCell id="3d76a8aef4d5c911-7" value="Statistics" style="html=1;shadow=0;dashed=0;fillColor=none;strokeColor=none;shape=mxgraph.bootstrap.rect;fontColor=#999999;whiteSpace=wrap;" parent="3d76a8aef4d5c911-1" vertex="1">
          <mxGeometry x="402.5" width="115" height="40" as="geometry" />
        </mxCell>
        <mxCell id="3d76a8aef4d5c911-8" value="Settings" style="html=1;shadow=0;dashed=0;fillColor=none;strokeColor=none;shape=mxgraph.bootstrap.rect;fontColor=#999999;whiteSpace=wrap;" parent="3d76a8aef4d5c911-1" vertex="1">
          <mxGeometry x="517.5" width="100.625" height="40" as="geometry" />
        </mxCell>
        <mxCell id="3d76a8aef4d5c911-9" value="Profile" style="html=1;shadow=0;dashed=0;fillColor=none;strokeColor=none;shape=mxgraph.bootstrap.rect;fontColor=#999999;whiteSpace=wrap;" parent="3d76a8aef4d5c911-1" vertex="1">
          <mxGeometry x="948.75" width="100.625" height="40" as="geometry" />
        </mxCell>
        <mxCell id="3d76a8aef4d5c911-10" value="Log Out" style="html=1;shadow=0;dashed=0;fillColor=none;strokeColor=none;shape=mxgraph.bootstrap.rect;fontColor=#999999;whiteSpace=wrap;" parent="3d76a8aef4d5c911-1" vertex="1">
          <mxGeometry x="1049.375" width="100.625" height="40" as="geometry" />
        </mxCell>
        <mxCell id="3d76a8aef4d5c911-11" value="" style="html=1;shadow=0;dashed=0;shape=mxgraph.bootstrap.rrect;rSize=5;strokeColor=#dddddd;rounded=0;fontSize=12;align=center;" parent="1" vertex="1">
          <mxGeometry x="860" y="150" width="330" height="400" as="geometry" />
        </mxCell>
        <mxCell id="3d76a8aef4d5c911-12" value="320x200" style="shape=rect;fontSize=24;fillColor=#f0f0f0;strokeColor=none;fontColor=#999999;whiteSpace=wrap;" parent="3d76a8aef4d5c911-11" vertex="1">
          <mxGeometry x="5" y="5" width="320" height="200" as="geometry" />
        </mxCell>
        <mxCell id="3d76a8aef4d5c911-13" value="Thumbnail label" style="html=1;shadow=0;dashed=0;shape=mxgraph.bootstrap.anchor;fontSize=26;align=left;whiteSpace=wrap;" parent="3d76a8aef4d5c911-11" vertex="1">
          <mxGeometry x="15" y="220" width="300" height="40" as="geometry" />
        </mxCell>
        <mxCell id="3d76a8aef4d5c911-14" value="Cras justo odio, dapibus ac facilisis in, egestas eget quam. Donec id elit non mi porta gravida at eget metus. Nullam id dolor id nibh ultricies vehicula ut id elit." style="html=1;shadow=0;dashed=0;shape=mxgraph.bootstrap.anchor;strokeColor=#dddddd;whiteSpace=wrap;align=left;verticalAlign=top;fontSize=14;whiteSpace=wrap;" parent="3d76a8aef4d5c911-11" vertex="1">
          <mxGeometry x="15" y="260" width="300" height="80" as="geometry" />
        </mxCell>
        <mxCell id="3d76a8aef4d5c911-15" value="Button" style="html=1;shadow=0;dashed=0;shape=mxgraph.bootstrap.rrect;rSize=5;fontSize=16;fillColor=#3D8BCD;strokeColor=none;fontColor=#ffffff;whiteSpace=wrap;" parent="3d76a8aef4d5c911-11" vertex="1">
          <mxGeometry y="1" width="80" height="40" relative="1" as="geometry">
            <mxPoint x="15" y="-60" as="offset" />
          </mxGeometry>
        </mxCell>
        <mxCell id="3d76a8aef4d5c911-16" value="Button" style="html=1;shadow=0;dashed=0;shape=mxgraph.bootstrap.rrect;rSize=5;fontSize=16;strokeColor=#dddddd;whiteSpace=wrap;" parent="3d76a8aef4d5c911-11" vertex="1">
          <mxGeometry y="1" width="80" height="40" relative="1" as="geometry">
            <mxPoint x="100" y="-60" as="offset" />
          </mxGeometry>
        </mxCell>
        <mxCell id="3d76a8aef4d5c911-17" value="Template name" style="html=1;shadow=0;dashed=0;shape=mxgraph.bootstrap.rect;strokeColor=none;fillColor=none;fontColor=#999999;align=left;spacingLeft=5;whiteSpace=wrap;rounded=0;" parent="1" vertex="1">
          <mxGeometry x="40" y="130" width="200" height="20" as="geometry" />
        </mxCell>
        <mxCell id="3d76a8aef4d5c911-18" value="Uncompleted Profile" style="html=1;shadow=0;dashed=0;shape=mxgraph.bootstrap.rrect;rSize=5;strokeColor=#dddddd;;align=left;spacingLeft=10;fontSize=16;whiteSpace=wrap;rounded=0;" parent="1" vertex="1">
          <mxGeometry x="40" y="150" width="800" height="40" as="geometry" />
        </mxCell>
        <mxCell id="3d76a8aef4d5c911-19" value="Subject" style="html=1;shadow=0;dashed=0;shape=mxgraph.bootstrap.rect;strokeColor=none;fillColor=none;fontColor=#999999;align=left;spacingLeft=5;whiteSpace=wrap;rounded=0;" parent="1" vertex="1">
          <mxGeometry x="40" y="210" width="200" height="20" as="geometry" />
        </mxCell>
        <mxCell id="3d76a8aef4d5c911-20" value="Hello, %USER_FULL_NAME%" style="html=1;shadow=0;dashed=0;shape=mxgraph.bootstrap.rrect;rSize=5;strokeColor=#dddddd;align=left;spacingLeft=10;fontSize=16;whiteSpace=wrap;rounded=0;" parent="1" vertex="1">
          <mxGeometry x="40" y="230" width="800" height="40" as="geometry" />
        </mxCell>
        <mxCell id="3d76a8aef4d5c911-21" value="Insert System Variable" style="html=1;shadow=0;dashed=0;shape=mxgraph.bootstrap.rect;strokeColor=none;fillColor=none;align=right;fontSize=10;whiteSpace=wrap;rounded=0;" parent="1" vertex="1">
          <mxGeometry x="690" y="210" width="120" height="20" as="geometry" />
        </mxCell>
        <mxCell id="3d76a8aef4d5c911-22" value="" style="shape=triangle;strokeColor=none;fillColor=#000000;direction=south;rounded=0;shadow=1;fontSize=12;fontColor=#000000;align=center;html=1;" parent="1" vertex="1">
          <mxGeometry x="812" y="217" width="8" height="4" as="geometry" />
        </mxCell>
        <mxCell id="3d76a8aef4d5c911-23" value="Message" style="html=1;shadow=0;dashed=0;shape=mxgraph.bootstrap.rect;strokeColor=none;fillColor=none;fontColor=#999999;align=left;spacingLeft=5;whiteSpace=wrap;rounded=0;" parent="1" vertex="1">
          <mxGeometry x="40" y="290" width="200" height="20" as="geometry" />
        </mxCell>
        <mxCell id="3d76a8aef4d5c911-24" value="Hello %USER_FULL_NAME%!&#xa;&#xa;At vero eos et accusamus et iusto odio dignissimos ducimus, qui blanditiis praesentium voluptatum deleniti atque corrupti, quosdolores et quas molestias excepturi sint, obcaecati cupiditate non provident, similique sunt in culpa, qui officia deserunt mollitiaanimi, id est laborum et dolorum fuga. Et harum quidem rerum facilis est et expedita distinctio. Nam libero tempore, cum solutanobis est eligendi optio, cumque nihil impedit, quo minus id, quod maxime placeat, facere possimus, omnis voluptas assumendaest, omnis dolor repellendus." style="html=1;shadow=0;dashed=0;shape=mxgraph.bootstrap.rrect;rSize=5;fontSize=12;strokeColor=#dddddd;align=left;spacing=10;verticalAlign=top;whiteSpace=wrap;rounded=0;" parent="1" vertex="1">
          <mxGeometry x="40" y="310" width="800" height="240" as="geometry" />
        </mxCell>
        <mxCell id="3d76a8aef4d5c911-25" value="Insert System Variable" style="html=1;shadow=0;dashed=0;shape=mxgraph.bootstrap.rect;strokeColor=none;fillColor=none;align=right;fontSize=10;whiteSpace=wrap;rounded=0;" parent="1" vertex="1">
          <mxGeometry x="690" y="290" width="120" height="20" as="geometry" />
        </mxCell>
        <mxCell id="3d76a8aef4d5c911-26" value="" style="shape=triangle;strokeColor=none;fillColor=#000000;direction=south;rounded=0;shadow=1;fontSize=12;fontColor=#000000;align=center;html=1;" parent="1" vertex="1">
          <mxGeometry x="812" y="297" width="8" height="4" as="geometry" />
        </mxCell>
        <mxCell id="3d76a8aef4d5c911-27" value="%USER_FULL_NAME%&#xa;%USER_EMAIL%&#xa;%USER_PROFILE_COMPLETENESS%&#xa;%USER_NUM_SUCCESS_TRADES%&#xa;%USER_FULL_NAME%&#xa;%USER_EMAIL%&#xa;%USER_PROFILE_COMPLETENESS%&#xa;%USER_NUM_SUCCESS_SELLS%" style="html=1;shadow=0;dashed=0;shape=mxgraph.bootstrap.rrect;fontSize=12;rSize=2;strokeColor=#dddddd;align=left;verticalAlign=top;spacing=10;shadow=1;whiteSpace=wrap;rounded=0;" parent="1" vertex="1">
          <mxGeometry x="590" y="305" width="240" height="140" as="geometry" />
        </mxCell>
        <mxCell id="3d76a8aef4d5c911-28" value="Message Type" style="html=1;shadow=0;dashed=0;shape=mxgraph.bootstrap.rect;strokeColor=none;fillColor=none;fontColor=#999999;align=left;spacingLeft=5;whiteSpace=wrap;rounded=0;" parent="1" vertex="1">
          <mxGeometry x="40" y="570" width="200" height="20" as="geometry" />
        </mxCell>
        <mxCell id="3d76a8aef4d5c911-29" value="Email + Push" style="html=1;shadow=0;dashed=0;shape=mxgraph.bootstrap.rrect;rSize=5;strokeColor=#dddddd;align=left;spacingLeft=10;fontSize=16;whiteSpace=wrap;rounded=0;" parent="1" vertex="1">
          <mxGeometry x="40" y="590" width="390" height="40" as="geometry" />
        </mxCell>
        <mxCell id="3d76a8aef4d5c911-30" value="" style="shape=triangle;strokeColor=none;fillColor=#000000;direction=south;rounded=0;shadow=1;fontSize=12;fontColor=#000000;align=center;html=1;" parent="1" vertex="1">
          <mxGeometry x="410" y="607" width="10" height="5" as="geometry" />
        </mxCell>
        <mxCell id="3d76a8aef4d5c911-31" value="Tap target" style="html=1;shadow=0;dashed=0;shape=mxgraph.bootstrap.rect;strokeColor=none;fillColor=none;fontColor=#999999;align=left;spacingLeft=5;whiteSpace=wrap;rounded=0;" parent="1" vertex="1">
          <mxGeometry x="450" y="570" width="200" height="20" as="geometry" />
        </mxCell>
        <mxCell id="3d76a8aef4d5c911-32" value="Profile Screen" style="html=1;shadow=0;dashed=0;shape=mxgraph.bootstrap.rrect;rSize=5;strokeColor=#dddddd;align=left;spacingLeft=10;fontSize=16;whiteSpace=wrap;rounded=0;" parent="1" vertex="1">
          <mxGeometry x="450" y="590" width="390" height="40" as="geometry" />
        </mxCell>
        <mxCell id="3d76a8aef4d5c911-33" value="" style="shape=triangle;strokeColor=none;fillColor=#000000;direction=south;rounded=0;shadow=1;fontSize=12;fontColor=#000000;align=center;html=1;" parent="1" vertex="1">
          <mxGeometry x="820" y="607" width="10" height="5" as="geometry" />
        </mxCell>
        <mxCell id="3d76a8aef4d5c911-34" value="Send to Group" style="html=1;shadow=0;dashed=0;shape=mxgraph.bootstrap.rect;strokeColor=none;fillColor=none;fontColor=#999999;align=left;spacingLeft=5;whiteSpace=wrap;rounded=0;" parent="1" vertex="1">
          <mxGeometry x="40" y="650" width="200" height="20" as="geometry" />
        </mxCell>
        <mxCell id="3d76a8aef4d5c911-35" value="Top Management" style="html=1;shadow=0;dashed=0;shape=mxgraph.bootstrap.checkbox;fontSize=12;strokeColor=#999999;align=left;labelPosition=right;spacingLeft=5;rounded=0;" parent="1" vertex="1">
          <mxGeometry x="50" y="673" width="14" height="14" as="geometry" />
        </mxCell>
        <mxCell id="3d76a8aef4d5c911-36" value="Marketing Department" style="html=1;shadow=0;dashed=0;shape=mxgraph.bootstrap.rrect;fontSize=12;rSize=3;strokeColor=#999999;align=left;labelPosition=right;spacingLeft=5;rounded=0;" parent="1" vertex="1">
          <mxGeometry x="50" y="693" width="14" height="14" as="geometry" />
        </mxCell>
        <mxCell id="3d76a8aef4d5c911-37" value="Design Department" style="html=1;shadow=0;dashed=0;shape=mxgraph.bootstrap.checkbox;fontSize=12;strokeColor=#999999;align=left;labelPosition=right;spacingLeft=5;rounded=0;" parent="1" vertex="1">
          <mxGeometry x="50" y="713" width="14" height="14" as="geometry" />
        </mxCell>
        <mxCell id="3d76a8aef4d5c911-38" value="Financial Department" style="html=1;shadow=0;dashed=0;shape=mxgraph.bootstrap.rrect;fontSize=12;rSize=3;strokeColor=#999999;align=left;labelPosition=right;spacingLeft=5;rounded=0;" parent="1" vertex="1">
          <mxGeometry x="50" y="733" width="14" height="14" as="geometry" />
        </mxCell>
        <mxCell id="3d76a8aef4d5c911-39" value="Supply Department" style="html=1;shadow=0;dashed=0;shape=mxgraph.bootstrap.rrect;fontSize=12;rSize=3;strokeColor=#999999;align=left;labelPosition=right;spacingLeft=5;rounded=0;" parent="1" vertex="1">
          <mxGeometry x="50" y="753" width="14" height="14" as="geometry" />
        </mxCell>
        <mxCell id="3d76a8aef4d5c911-40" value="Set Type" style="html=1;shadow=0;dashed=0;shape=mxgraph.bootstrap.rect;strokeColor=none;fillColor=none;fontColor=#999999;align=left;spacingLeft=5;whiteSpace=wrap;rounded=0;" parent="1" vertex="1">
          <mxGeometry x="450" y="650" width="200" height="20" as="geometry" />
        </mxCell>
        <mxCell id="3d76a8aef4d5c911-41" value="" style="shape=ellipse;dashed=0;strokeColor=#999999;fillColor=#ffffff;html=1;rounded=0;shadow=1;fontSize=12;fontColor=#000000;align=center;" parent="1" vertex="1">
          <mxGeometry x="460" y="673" width="14" height="14" as="geometry" />
        </mxCell>
        <mxCell id="3d76a8aef4d5c911-42" value="News" style="html=1;shadow=0;dashed=0;shape=mxgraph.bootstrap.rrect;align=center;rSize=3;strokeColor=none;fillColor=#58B957;fontColor=#ffffff;fontStyle=1;fontSize=10;whiteSpace=wrap;rounded=0;" parent="1" vertex="1">
          <mxGeometry x="480" y="673" width="40" height="14" as="geometry" />
        </mxCell>
        <mxCell id="3d76a8aef4d5c911-43" value="" style="html=1;shadow=0;dashed=0;shape=mxgraph.bootstrap.radioButton;strokeColor=#999999;fillColor=#ffffff;rounded=0;fontSize=12;fontColor=#000000;align=center;" parent="1" vertex="1">
          <mxGeometry x="460" y="693" width="14" height="14" as="geometry" />
        </mxCell>
        <mxCell id="3d76a8aef4d5c911-44" value="Reports" style="html=1;shadow=0;dashed=0;shape=mxgraph.bootstrap.rrect;align=center;rSize=3;strokeColor=none;fillColor=#55BFE0;fontColor=#ffffff;fontStyle=1;fontSize=10;whiteSpace=wrap;rounded=0;" parent="1" vertex="1">
          <mxGeometry x="480" y="693" width="50" height="14" as="geometry" />
        </mxCell>
        <mxCell id="3d76a8aef4d5c911-45" value="" style="shape=ellipse;dashed=0;strokeColor=#999999;fillColor=#ffffff;html=1;rounded=0;shadow=1;fontSize=12;fontColor=#000000;align=center;" parent="1" vertex="1">
          <mxGeometry x="460" y="713" width="14" height="14" as="geometry" />
        </mxCell>
        <mxCell id="3d76a8aef4d5c911-46" value="Documents" style="html=1;shadow=0;dashed=0;shape=mxgraph.bootstrap.rrect;align=center;rSize=3;strokeColor=none;fillColor=#EFAC43;fontColor=#ffffff;fontStyle=1;fontSize=10;whiteSpace=wrap;rounded=0;" parent="1" vertex="1">
          <mxGeometry x="480" y="713" width="70" height="14" as="geometry" />
        </mxCell>
        <mxCell id="3d76a8aef4d5c911-47" value="" style="shape=ellipse;dashed=0;strokeColor=#999999;fillColor=#ffffff;html=1;rounded=0;shadow=1;fontSize=12;fontColor=#000000;align=center;" parent="1" vertex="1">
          <mxGeometry x="460" y="733" width="14" height="14" as="geometry" />
        </mxCell>
        <mxCell id="3d76a8aef4d5c911-48" value="Media" style="html=1;shadow=0;dashed=0;shape=mxgraph.bootstrap.rrect;align=center;rSize=3;strokeColor=none;fillColor=#3D8BCD;fontColor=#ffffff;fontStyle=1;fontSize=10;whiteSpace=wrap;rounded=0;" parent="1" vertex="1">
          <mxGeometry x="480" y="733" width="40" height="14" as="geometry" />
        </mxCell>
        <mxCell id="3d76a8aef4d5c911-49" value="" style="shape=ellipse;dashed=0;strokeColor=#999999;fillColor=#ffffff;html=1;rounded=0;shadow=1;fontSize=12;fontColor=#000000;align=center;" parent="1" vertex="1">
          <mxGeometry x="460" y="753" width="14" height="14" as="geometry" />
        </mxCell>
        <mxCell id="3d76a8aef4d5c911-50" value="Text" style="html=1;shadow=0;dashed=0;shape=mxgraph.bootstrap.rrect;align=center;rSize=3;strokeColor=none;fillColor=#999999;fontColor=#ffffff;fontStyle=1;fontSize=10;whiteSpace=wrap;rounded=0;" parent="1" vertex="1">
          <mxGeometry x="480" y="753" width="30" height="14" as="geometry" />
        </mxCell>
        <mxCell id="3d76a8aef4d5c911-51" value="Save Template" style="html=1;shadow=0;dashed=0;shape=mxgraph.bootstrap.rrect;align=center;rSize=5;strokeColor=none;fillColor=#3D8BCD;fontColor=#ffffff;fontSize=16;whiteSpace=wrap;rounded=0;" parent="1" vertex="1">
          <mxGeometry x="40" y="810" width="150" height="40" as="geometry" />
        </mxCell>
        <mxCell id="3d76a8aef4d5c911-52" value="Cancel" style="html=1;shadow=0;dashed=0;shape=mxgraph.bootstrap.rrect;align=center;rSize=5;strokeColor=#dddddd;fontSize=16;whiteSpace=wrap;rounded=0;" parent="1" vertex="1">
          <mxGeometry x="210" y="810" width="100" height="40" as="geometry" />
        </mxCell>
        <mxCell id="3d76a8aef4d5c911-53" value="Delete Template" style="html=1;shadow=0;dashed=0;shape=mxgraph.bootstrap.rrect;align=center;rSize=5;strokeColor=none;fillColor=#DB524C;fontColor=#ffffff;fontSize=16;whiteSpace=wrap;rounded=0;" parent="1" vertex="1">
          <mxGeometry x="670" y="810" width="170" height="40" as="geometry" />
        </mxCell>
        <mxCell id="3d76a8aef4d5c911-54" value="" style="html=1;shadow=0;dashed=0;shape=mxgraph.bootstrap.rrect;rSize=5;strokeColor=#dddddd;rounded=0;fontSize=12;align=center;" parent="1" vertex="1">
          <mxGeometry x="860" y="580" width="330" height="400" as="geometry" />
        </mxCell>
        <mxCell id="3d76a8aef4d5c911-55" value="320x200" style="shape=rect;fontSize=24;fillColor=#f0f0f0;strokeColor=none;fontColor=#999999;whiteSpace=wrap;" parent="3d76a8aef4d5c911-54" vertex="1">
          <mxGeometry x="5" y="5" width="320" height="200" as="geometry" />
        </mxCell>
        <mxCell id="3d76a8aef4d5c911-56" value="Thumbnail label" style="html=1;shadow=0;dashed=0;shape=mxgraph.bootstrap.anchor;fontSize=26;align=left;whiteSpace=wrap;" parent="3d76a8aef4d5c911-54" vertex="1">
          <mxGeometry x="15" y="220" width="300" height="40" as="geometry" />
        </mxCell>
        <mxCell id="3d76a8aef4d5c911-57" value="Cras justo odio, dapibus ac facilisis in, egestas eget quam. Donec id elit non mi porta gravida at eget metus. Nullam id dolor id nibh ultricies vehicula ut id elit." style="html=1;shadow=0;dashed=0;shape=mxgraph.bootstrap.anchor;strokeColor=#dddddd;whiteSpace=wrap;align=left;verticalAlign=top;fontSize=14;whiteSpace=wrap;" parent="3d76a8aef4d5c911-54" vertex="1">
          <mxGeometry x="15" y="260" width="300" height="80" as="geometry" />
        </mxCell>
        <mxCell id="3d76a8aef4d5c911-58" value="Button" style="html=1;shadow=0;dashed=0;shape=mxgraph.bootstrap.rrect;rSize=5;fontSize=16;fillColor=#3D8BCD;strokeColor=none;fontColor=#ffffff;whiteSpace=wrap;" parent="3d76a8aef4d5c911-54" vertex="1">
          <mxGeometry y="1" width="80" height="40" relative="1" as="geometry">
            <mxPoint x="15" y="-60" as="offset" />
          </mxGeometry>
        </mxCell>
        <mxCell id="3d76a8aef4d5c911-59" value="Button" style="html=1;shadow=0;dashed=0;shape=mxgraph.bootstrap.rrect;rSize=5;fontSize=16;strokeColor=#dddddd;whiteSpace=wrap;" parent="3d76a8aef4d5c911-54" vertex="1">
          <mxGeometry y="1" width="80" height="40" relative="1" as="geometry">
            <mxPoint x="100" y="-60" as="offset" />
          </mxGeometry>
        </mxCell>
      </root>
    </mxGraphModel>
  </diagram>
</mxfile>
